<svg viewBox="0 0 626.74 610.19" xmlns="http://www.w3.org/2000/svg" data-name="Layer 2" id="Layer_2">
  <defs>
    <style>
      .cls-1 {
        fill-rule: evenodd;
      }
    </style>
  </defs>
  <g data-name="Layer 1" id="Layer_1-2">
    <path d="M530.19,116.1c-11.15,0-19.05-22.18-19.15-40.01.1-17.83,8-39.41,19.15-39.41,5.47,0,12.87,4.46,17.32,12.87h1.01c-1.72-3.14-3.75-6.08-5.78-8.01-3.75-3.65-8.1-5.67-12.56-5.67-3.44,0-6.69,1.11-9.83,3.34-2.94,2.12-5.57,5.06-7.8,8.81-9.52,16.41-9.83,40.73,0,56.73,2.33,3.75,4.86,6.69,7.8,8.82,3.14,2.23,6.38,3.24,9.83,3.24,4.46,0,8.81-1.93,12.56-5.57,2.03-1.93,4.06-4.86,5.78-8h-.81c-4.46,8.41-12.06,12.86-17.53,12.86Z"></path>
    <path d="M597.97,67.58c-2.02-2.74-4.46-4.76-7.09-6.28-2.84-1.62-5.78-2.43-8.91-2.43s-6.08.81-8.92,2.43c-2.63,1.52-5.06,3.55-7.09,6.28-8.71,11.75-8.92,29.18,0,40.62,2.13,2.63,4.46,4.76,7.09,6.28,2.84,1.62,5.78,2.43,8.92,2.43s6.08-.81,8.91-2.43c2.64-1.52,4.97-3.65,7.09-6.28,8.92-11.45,8.71-28.87,0-40.62ZM582.47,116.31h-1.02c-9.93-.51-16.81-16.1-16.92-28.67.1-12.66,7.1-27.86,17.12-28.16h.61c10.03.3,17.02,15.5,17.12,28.16-.1,12.56-6.99,28.16-16.92,28.67Z"></path>
    <path d="M617.42,112.15c0,1.32.41,2.43,1.32,3.34.91.91,1.93,1.42,3.24,1.42s2.43-.51,3.34-1.42c.91-.91,1.42-2.02,1.42-3.34s-.51-2.33-1.42-3.24c-.91-.91-2.03-1.42-3.34-1.42s-2.33.51-3.24,1.42c-.91.91-1.32,1.93-1.32,3.24Z"></path>
    <path d="M204.07,116.1c-11.14,0-19.05-22.18-19.15-40.01.1-17.83,8.01-39.41,19.15-39.41,5.47,0,12.87,4.46,17.32,12.87h1.01c-1.72-3.14-3.75-6.08-5.78-8.01-3.75-3.65-8.1-5.67-12.56-5.67-3.44,0-6.69,1.11-9.83,3.34-2.94,2.12-5.57,5.06-7.8,8.81-9.52,16.41-9.83,40.73,0,56.73,2.33,3.75,4.86,6.69,7.8,8.82,3.14,2.23,6.38,3.24,9.83,3.24,4.46,0,8.81-1.93,12.56-5.57,2.03-1.93,4.05-4.86,5.78-8h-.81c-4.46,8.41-12.06,12.86-17.53,12.86Z"></path>
    <path d="M265.87,116.92h4.96l-19.55-81.05-18.84,81.05h.91l10.94-47.11h10.13l11.45,47.11ZM244.49,68.9l4.76-20.47,4.96,20.47h-9.73Z"></path>
    <polygon points="319.46 36.78 319.46 35.87 279.85 35.87 279.85 36.78 297.28 36.78 297.28 116.92 302.04 116.92 302.04 36.78 319.46 36.78"></polygon>
    <polygon points="367.08 36.78 367.08 35.87 327.47 35.87 327.47 36.78 344.89 36.78 344.89 116.92 349.66 116.92 349.66 36.78 367.08 36.78"></polygon>
    <polygon points="418.04 116.82 418.04 115.9 383.29 115.9 383.29 35.87 378.43 35.87 378.43 116.92 383.29 116.92 418.04 116.82"></polygon>
    <polygon points="433.95 116 433.95 63.63 463.33 63.63 463.33 62.72 433.95 62.72 433.95 36.78 463.33 36.78 463.33 35.87 429.08 35.87 429.08 116.92 463.33 116.92 463.33 116 433.95 116"></polygon>
    <polygon points="127.78 8.01 78.23 8.01 78.23 8.89 127.34 8.89 127.34 137.4 86.54 137.4 86.54 138.28 127.78 138.28 128.22 137.84 128.22 8.45 127.78 8.01"></polygon>
    <path d="M101.8,35.26c-1.14,1.84-1.71,4.33-1.71,7.47s.59,5.5,1.77,7.24c1.18,1.74,2.71,2.61,4.6,2.61s3.37-.88,4.57-2.65c1.2-1.76,1.8-4.12,1.8-7.07,0-3.28-.58-5.83-1.74-7.64-1.16-1.81-2.68-2.72-4.56-2.72-2.01,0-3.58.92-4.73,2.75ZM109.6,36.29c.82,1.37,1.23,3.44,1.23,6.22,0,2.56-.39,4.58-1.17,6.07-.78,1.49-1.86,2.23-3.25,2.23s-2.44-.72-3.21-2.17c-.77-1.44-1.16-3.38-1.16-5.8,0-2.57.37-4.64,1.11-6.23.74-1.58,1.89-2.37,3.45-2.37,1.17,0,2.17.68,2.99,2.06Z"></path>
    <path d="M101.08,63.66v19.45h1.69v-11.27l.04-.83v-2.16s-.08-1.5-.08-1.5c0-.07.01-.3.04-.68l.67,1.71c.44,1.15.73,1.9.89,2.26l5.58,12.48h1.9v-19.45h-1.69v10.94c0,.12.05,1.93.15,5.43l-1.51-3.42-5.76-12.95h-1.92Z"></path>
    <polygon points="102 113.95 111.45 113.95 111.45 112.33 103.9 112.33 103.9 104.61 111.04 104.61 111.04 102.99 103.9 102.99 103.9 96.14 111.45 96.14 111.45 94.5 102 94.5 102 113.95"></polygon>
    <polygon points="9.84 17.58 11.56 17.58 11.56 9.51 17.69 9.51 17.69 8.08 11.56 8.08 11.56 1.51 18.09 1.51 18.09 0 9.84 0 9.84 17.58"></polygon>
    <rect height="17.58" width="1.71" x="28.12"></rect>
    <polygon points="44.22 17.58 45.92 17.58 50.72 0 48.83 0 45.11 15.32 41.21 0 39.34 0 44.22 17.58"></polygon>
    <polygon points="60.23 17.58 68.77 17.58 68.77 16.12 61.94 16.12 61.94 9.14 68.39 9.14 68.39 7.68 61.94 7.68 61.94 1.49 68.77 1.49 68.77 0 60.23 0 60.23 17.58"></polygon>
    <path d="M34.09,149.02c25.04,0,39.22-17.5,39.22-38.46,0-24.13-17.8-33.33-34.24-33.33-15.39,0-26.7,7.09-32.43,12.67l.45.3,6.18-52.79-.75,3.17,54.3-.15,1.21-7.69H12.07l-6.94,58.97,1.36.76c3.92-4.37,13.42-12.52,28.51-12.52,10.56,0,27.45,4.37,27.45,31.07,0,21.72-11.31,35.75-31.22,35.75-14.18,0-27.9-8.9-29.41-24.28l-1.81.3c1.81,16.74,15.84,26.24,34.09,26.24Z"></path>
    <path d="M342.46,261.42c4.39,1.94,4.4,2.34,5.03,1.67.73-.78.79-.53,2.93-1.27l-1.62-.39c-3.22-.99-3.2-1.06-6.34,0Z" class="cls-1"></path>
    <path d="M519.75,226.5c-5.05,6.57,10.47-.99-11.62,10.51-.02,0,0,.03,0,.03,19.72-2.86,21.06-2.19,34.43-16.25.32-.34.3-.87-.04-1.18-1.12-1.02-2.37-2.46-13.23-4.15-.34-.05-.51-.44-.32-.72.75-1.14,2.64-3.65,8.04-7.16,9.36-6.1,8.02-7.75,18.07-12.65l-4.38,1.66c-18.58,8.51-28.6,18.17-31.32,20.83-.32.32-.24.85.15,1.07,6.12,3.41-8.2,9.13.18,7.98.03,0,.05.03.03.06Z" class="cls-1"></path>
    <path d="M331.88,250.93c-7.85-11.98-7.81-11.75-9.41-14.64,1.07,5.67-1.75,9.05,8.13,21.33.24.3.39.68.42,1.07.06.9.11,1.6.12,1.77.74-2.21,2.61-3.66,3.23-4.67,1.07-1.73,2.47-2.41,5.9-4.57-4.43.55-6.77-1.84-8.39-.28Z" class="cls-1"></path>
    <path d="M348.51,251.54c-4.2-1.92-4.05,1.08-8.64,1.14l.51.59c3.43,2.62,8.32-.33,9.36.05,9.46,3.5-1.07-1.71-1.23-1.79Z" class="cls-1"></path>
    <path d="M341.4,276.36c6.29,3.62,11.48-7.18,14.66-7.95,3.41-.83,3.79.17,6.77-2.46,1.75-1.54,14.85,1.35,16.66,1.62-.99-.56-18.97-9-18.25-5.02,1.1,6.08-6.78-.23-11.42,4.98-4,4.49-15.86,4.56-8.41,8.83Z" class="cls-1"></path>
    <path d="M312.29,422.14c-4.6-14.77-7.38-29.47-9.64-37.83-13.21-63.29-5.56-76.65.38-102.6-9.57,21.76-12.6,39.67-12.15,54.44,1.18,38.89,9.15,65.67,11.76,84.67,5.49,40.01,0,104.47.91,101.52,9.95-31.99,3.09-82.71,17-68.54,35.68,36.34,58.84,87.28,68.99,131.91-3.59-50.23-22.12-83.28-37.64-105.17-16.74-23.6-32.2-34.64-39.6-58.4Z" class="cls-1"></path>
    <path d="M568.3,183.92c-3.98-2.88-15.69-6.51-27.84-2.43,12.18-1.02,22.38,3.57,26.72,7.56,6.96,6.39,8.69,15.5-13.03,28.59,26.7-1.5-20.8,30.18-30.83,29.08-8.45-.92-15.31-.23-23.93-3.02-4.72-2.41-6.2-4.11-12.77-9.81,6.48,14.02,7.78,13.23,8.31,14.46,1.05,2.44-1.18,8.34-3.05,12.52-1.57,2.33,3.08,11.81,3.94,17.57.49,3.27.93,6.21-.58,8.53-8.06,12.39-6.99,13.04-5.99,27.48-.13-15.38.74-16.58,10.63-28.95,3.53-4.41-2.61-17.62-3.1-23.54-.05-.61-.09-1.14-.12-1.6-.07-1.23.42-2.41,1.28-3.29,0,0,0,0,.01-.01,8.36-8.45,21.24,1.43,36.82-6.26,43.36-21.41,49.54-55.28,33.51-66.86Z" class="cls-1"></path>
    <path d="M452.74,428.58c-8.49,15.04-9.16,26.05-40.45,13.57,25.47,14.69,22.23,18.54,21.24,21.64-16.04,50.31-24.72,57.82-19.41,82.25,12.81,58.94,11.58,59.14,13.14,64.14.22-52.07-7.33-66.76,7.17-120.21,11.04-40.7,12.78-40.33,32.93-76.78.35-.64.57-1.34.64-2.07-9.27,12.54-12.42,12.41-15.26,17.45Z" class="cls-1"></path>
    <path d="M495.93,387.22c-23.6-4.63-41.33-3.87-53.26-1.48-7.35,1.03-10.89.96-17.77,2.54-3.12.71-28.1-9.63-17.66,3.9,3,3.89,6.77,3.4,17.86.54-.49.48-.77.91-.86,1.26-2.19,9.2,25.42-10.73,73.42-2.65.77.13,1.5.23,2.21.32-1.52,1.17-2.12,2.7-3.29,4.32-4.39,6.06-7.63,5.84-14.58,7.78-6.54,1.83-6-5.55-5.95-6.24-5.31,2.84-9.44,5.11-12.65,6.89-5.57,3.1-14.64,10.02-16.73,11.47-.16.11-.38.08-.51-.07-7.91-9.12-9.02-11.24-20.91-14.58,14.69,11.66,11.36,14.76,11.74,36.1,10.14-17.38,12.21-17.91,24.14-29.57.37-.36.82-.65,1.31-.79.06-.02.11-.03.16-.04,3.01-.59,5.6,0,11.4,2.15,7.64,2.84,17.53,1.05,25.16-10.99,1.49-2.35,3.41-3.73,5.61-5.82.23-.22.53-.35.85-.37,17.37-1.07,10.78-20.72,6.54-39.75,0,24.3.2,38.32-16.26,35.09Z" class="cls-1"></path>
    <path d="M488.99,331.76c-1.28-.21-2.59-.28-3.89-.19-6.34.4-24.77,1.53-29.2,1.19-12.03-.9-23.46-10.44-27.33,16.66.49-1.08,5.94-18.47,13.84-14.05.74.42,1.51.83,2.47,1.81,2.06,2.09,5.37,6.61,11.14,9.99-16-18.92,10.26-5.32,32.97-15.41Z" class="cls-1"></path>
    <path d="M431.86,352.42l.39.15c3.6,3.22,4.6,2.59,5.74,7.21,1.07,4.37,10.4,4.65,11.39,4.68-5.96-3.32-8.14-2.28-7.31-5.98.89-3.96-9.27-5.89-10.21-6.06Z" class="cls-1"></path>
    <path d="M496.14,348.5c-2.16,2.16-7.99,13.59,6.69,11.38-.72-.14-10.15-2-5.23-7.55,4.04-4.55,13.55-6.02,8.05-16.09l-.47-.67c.38,10.11-4.02,7.91-9.04,12.93Z" class="cls-1"></path>
    <path d="M457.05,361.81c12.61-.84,14.11-11.86,3.99-15.96,7.15,8.96.93,12.73-3.99,15.96Z" class="cls-1"></path>
    <path d="M294.84,215.82c5.4-7.8,8.46-11.92,13.89-16.19,6.25-4.91,15.64-10,35.34-21.09,1.93-1.08,34.53-16.27,45.48-20.4,14.01-5.29,24.66.66,35.43,8.08-.37-.22-15.79-23.67-48.51-9.62-5.98,2.57-18.95,9.12-26.32,13.11-54.2,29.31-58.35,40.07-76.96,22,1.06,1.15,2.09,2.32,3.09,3.52,8.33,9.96,9.4,9.69,18.56,20.59Z" class="cls-1"></path>
    <path d="M511.55,334.03c1.87,2.94,1.15,6.83,1.49,10.37,3.43-14.94-3.57-14-6.46-14.45,1.79.79,4.23,2.92,4.98,4.08Z" class="cls-1"></path>
    <path d="M486.87,222.69c-.36-8.72-4.34-13.68,12.02-22.49,7.9-4.25,6.66-5.71,14.33-10.51-27.88,14.02-29.08,14.16-33.93,10.73-15.98-11.28-22.27-22.25-41.36-26.62.08.45.38.83.79,1.03,41.95,20.04,43.43,41.45,48.15,47.86Z" class="cls-1"></path>
    <path d="M476.34,265.04c-.48,1.89-4.67,18.48-4.2,23.94.17,1.93,11.92,23.81,6.98,25.57-8.29,2.95-17.66-1.74-34.96,10.55,2.46-1.5,18.47-8.39,42.29-7.23-3.45-12.23-3.85-11.87-8.57-23.79-5.5-13.92-3.21-14.18-1.54-29.04Z" class="cls-1"></path>
    <path d="M419.29,379.54c-10.07-17.09-10.56-18.1-4.68-36.56,4.7-14.76-9.58-13.97-13.49-14.99-5.6-1.46-11.31-16.1-11.93-17.69,1.7,16,.6,20.08,16.78,22.12,17.03,2.15-13.78,25.54,13.32,47.12Z" class="cls-1"></path>
    <path d="M327.59,321.43c.21,6.88,5.97,32.13,14.84,81.29,3.4,18.85,54.25,33.53,59.24,35.03-8.42-3.7-29.1-16.23-35.15-20.94-23.56-18.32-24.45-53.31-38.94-95.38Z" class="cls-1"></path>
    <path d="M393.56,271.48c-.25-6.35,1.25-9.1-1.48-18.79-.31-1.11-1.15-2-2.24-2.38-38.05-13.07-32.83-23.49-39.73-39.87-.38.81-.5,1.72-.37,2.6.97,6.21,5.17,27.72,19.53,32.49,18.4,6.12,18.19,7.85,24.29,25.95Z" class="cls-1"></path>
    <path d="M424.12,193.66c-2.86,3.13-15.85-11.76-16.74-12.95q1.7,5.49,26.27,66.89c-1.12-3.69-13.44-44.21-5.8-47.9,14.05-6.78,6.36-9.66,6.77-20.65-2.9,10.69-6.51,10.26-10.51,14.61Z" class="cls-1"></path>
    <path d="M235.84,183.78h0s.01,0,0,0Z"></path>
    <path d="M140.67,362.55c2.36-9.44,22.1-29.2,45.66-49.43,18.34-13.92,16.93-12.93,22.22-14.52,1-.3,2.07.17,2.53,1.1,24.22,48.51,29.82,57.14,44.52,75.48-11.5-19.98-45.11-67.99-19.3-99.31,3.61-4.38,18.1-14.64,28.04-20.67,1.78-.97,3.34-1.72,4.63-2.24,6.45,2.37,12.6,3.83,17.94,4.11-21.94-8.71-49.74-24.4-63.49-41.84-.72-.92-.93-2.14-.55-3.24v-.02c2.15-6.25,16.73-.5,28.25,3.28-23.59-14.42-33.89-21.12-26.51-28.83,4.85-5.07,36.92-.31,42.92,1.69-5.4-3.87-12.83-6.54-17.59-7.48-32.69-6.45-43.39,7.33-40.51,19.64,4.38,18.74,29.2,39.3,52.49,49.82-46.03,20.2-87.95,58.51-115.23,85.72-16.25,16.21-43.52,26.42-65.05,32.39-3.81.97-7.43,1.89-10.85,2.79-10.18,2.42-17.85,3.72-20.42,4.15,1.02-.1,6.98.68,9.21.75,43.22,1.46,133.5,42.64,211.1,199.57-17.2-53.61-34.61-79.25-82.59-135.2-18.92-22.07-54.08-51.02-47.41-77.69Z"></path>
  </g>
</svg>