<?xml version="1.0" encoding="utf-8"?>
<!-- Generator: Adobe Illustrator 25.1.0, SVG Export Plug-In . SVG Version: 6.00 Build 0)  -->
<svg version="1.1" id="Layer_1" xmlns="http://www.w3.org/2000/svg" xmlns:xlink="http://www.w3.org/1999/xlink" x="0px" y="0px"
	 viewBox="0 0 1080 525" style="enable-background:new 0 0 1080 525;" xml:space="preserve">
<style type="text/css">
	.st0{fill:url(#SVGID_1_);}
	.st1{fill:url(#SVGID_2_);}
	.st2{fill:url(#SVGID_3_);}
	.st3{fill:url(#SVGID_4_);}
	.st4{fill:url(#SVGID_5_);}
	.st5{fill:url(#SVGID_6_);}
	.st6{fill:url(#SVGID_7_);}
	.st7{fill:url(#SVGID_8_);}
	.st8{fill:url(#SVGID_9_);}
	.st9{fill:url(#SVGID_10_);}
	.st10{fill:url(#SVGID_11_);}
	.st11{fill:url(#SVGID_12_);}
	.st12{fill:url(#SVGID_13_);}
	.st13{fill:url(#SVGID_14_);}
	.st14{fill:url(#SVGID_15_);}
	.st15{fill:url(#SVGID_16_);}
	.st16{fill:url(#SVGID_17_);}
	.st17{fill:url(#SVGID_18_);}
	.st18{fill:url(#SVGID_19_);}
	.st19{fill:url(#SVGID_20_);}
	.st20{fill:url(#SVGID_21_);}
	.st21{fill:url(#SVGID_22_);}
	.st22{fill:url(#SVGID_23_);}
	.st23{fill:url(#SVGID_24_);}
	.st24{fill:url(#SVGID_25_);}
	.st25{fill:url(#SVGID_26_);}
	.st26{fill:url(#SVGID_27_);}
	.st27{fill:url(#SVGID_28_);}
	.st28{fill:url(#SVGID_29_);}
	.st29{fill:#FFFFFF;}
</style>
<g>
	<linearGradient id="SVGID_1_" gradientUnits="userSpaceOnUse" x1="544.6816" y1="87.7375" x2="544.6816" y2="59.7716">
		<stop  offset="0" style="stop-color:#F9B462"/>
		<stop  offset="0.448" style="stop-color:#F7931E"/>
		<stop  offset="1" style="stop-color:#F15A24"/>
	</linearGradient>
	<path class="st0" d="M999.3,60.2c-0.5,0-1,0-1.5,0c-300,0-600,0-900,0c-2.8,0-5.7-0.2-8.5-0.4c-1.3-0.1-2.3,0.3-2.8,0.9
		c8,5.2,24.5,15.3,24.3,15.2C110.6,75.8,124,88,124,87.3c1.1,0.2,2.2,0.3,3.3,0.3c40.2-0.1,80.4,0,120.5,0
		c236.5,0,473.1,0,709.6,0.1c3.2,0,6.5-0.1,9.7-0.1c0.7,0,1.5,0,2-0.3c1.5-0.8,5.8-5.3,5.8-5.3s17.1-14.5,27.8-21.9
		C1002,60.1,1000.9,60.1,999.3,60.2z"/>
	<linearGradient id="SVGID_2_" gradientUnits="userSpaceOnUse" x1="544.2246" y1="120.9376" x2="544.2246" y2="93.2258">
		<stop  offset="0" style="stop-color:#F9B462"/>
		<stop  offset="0.448" style="stop-color:#F7931E"/>
		<stop  offset="1" style="stop-color:#F15A24"/>
	</linearGradient>
	<path class="st1" d="M544.2,120.9c-135.1,0-270.1,0-405.2,0c-1.1,0-2.2-0.1-3.2,0c-1.7,0.1-2.6-0.7-2.6-2.4c0-7.6,0-15.1,0.2-22.7
		c0-0.8,1.4-1.9,2.3-2.4c0.7-0.4,1.7-0.1,2.6-0.1c269.5,0,539.1,0,808.6,0c8.4,0,8.4,0,8.4,8.3c0,5.5-0.1,11,0,16.5
		c0,2-0.6,2.8-2.7,2.8c-3.1-0.1-6.3,0.1-9.4,0.1C810.2,120.9,677.2,120.9,544.2,120.9C544.2,120.9,544.2,120.9,544.2,120.9z"/>
	<linearGradient id="SVGID_3_" gradientUnits="userSpaceOnUse" x1="777.8197" y1="322.3462" x2="777.8197" y2="128.594">
		<stop  offset="0" style="stop-color:#F9B462"/>
		<stop  offset="0.448" style="stop-color:#F7931E"/>
		<stop  offset="1" style="stop-color:#F15A24"/>
	</linearGradient>
	<path class="st2" d="M777.6,201c0.9-3.4,1.8-6.7,2.7-10.1c5.2-19.7,10.5-39.4,15.6-59.2c0.6-2.3,1.5-3.1,4-3
		c13,0.1,25.9,0.1,38.9,0.1c6.2,0,7.2,1.2,7.4,7.5c0.1,4.7-1.1,8.5-5.9,10.4c-4.2,1.7-4.3,5.4-4.3,9.1c-0.1,21.4-0.2,42.8-0.3,64.2
		c0,24.8,0,49.7,0.1,74.5c0,1.6,0.2,3.1,0.2,4.7c0,2.7,1.3,4.6,3.6,5.6c4.2,1.8,5.6,4.8,5.5,9.3c-0.3,8.3-0.1,8.3-8.2,8.3
		c-16,0-32,0-48,0c-3.9,0-5-0.8-5.2-4.7c-0.2-2.8-0.1-5.8,0.5-8.5c0.3-1.4,2-3,3.4-3.6c4-1.8,5.4-4.6,5.4-8.8
		c-0.1-31.2-0.1-62.4-0.1-93.6c0-0.9,0-1.7-0.5-2.8c-0.3,0.6-0.6,1.2-0.8,1.9c-6.5,24.5-13.1,49-19.6,73.6c-0.7,2.6-1.6,3.9-4.5,3.6
		c-3-0.3-6.9,0.9-8.9-0.6c-2-1.5-2.2-5.4-3-8.3c-5.8-21.4-11.5-42.8-17.2-64.3c-0.4-1.3-0.7-2.6-1.6-3.9c0,0.7,0,1.4,0,2.1
		c-0.1,30.5-0.1,61.1-0.3,91.6c0,4.5,1.3,7.7,5.3,10c4.3,2.5,5.9,9.8,3.2,13.8c-0.8,1.2-2.7,2.3-4.1,2.3c-8.5,0.2-17.1,0.3-25.6,0
		c-1.4,0-3.3-1.5-3.9-2.8c-1.9-3.8-0.7-9.2,2.6-11.8c3.5-2.8,4.6-6.2,4.5-10.5c-0.1-45.4-0.1-90.9-0.2-136.3c0-2.3-0.2-4.5-0.3-6.8
		c-0.3-3.8-2.1-6.7-5.5-8.5c-2.2-1.1-3.3-2.9-3-5.5c0.3-2.7,0.4-5.5,0.5-8.2c0.1-2.1,1.3-3.2,3.5-3.2c14.2,0,28.5,0,42.7,0
		c1.8,0,2,1,2.3,2.3c4.5,17.4,8.9,34.7,13.4,52.1c1.5,6,3.2,11.9,4.8,17.9C777.1,200.9,777.3,200.9,777.6,201z"/>
	<linearGradient id="SVGID_4_" gradientUnits="userSpaceOnUse" x1="536.3333" y1="322.4234" x2="536.3333" y2="128.569">
		<stop  offset="0" style="stop-color:#F9B462"/>
		<stop  offset="0.448" style="stop-color:#F7931E"/>
		<stop  offset="1" style="stop-color:#F15A24"/>
	</linearGradient>
	<path class="st3" d="M560.5,229.6c2.6,0.9,4.6,1.5,6.6,2.3c16.2,6,25.3,18.6,25.6,35.9c0.2,10.2,0.1,20.4,0.1,30.6
		c0,3.1,1,5.5,3.3,7.8c1.5,1.6,2.5,4.2,2.6,6.5c0.5,9.6,0.3,9.7-9.3,9.7c-8.8,0-17.7-0.1-26.5,0.1c-4.8,0.1-8-2-10.4-6
		c-3.1-5.1-4-10.8-4-16.7c0-14.8,0-29.6,0-44.5c0-2.1-0.1-4.1-0.3-6.2c-0.6-7.3-4.4-11.2-11.7-12c-7.9-0.9-7.9-0.9-7.9,6.8
		c0,17.6,0,35.1-0.1,52.7c0,3.6,0.9,6.3,3.9,8.6c1.6,1.2,2.5,3.9,2.8,6.1c0.4,2.4,0.1,5-0.5,7.3c-0.4,1.3-1.9,2.5-3.2,3.4
		c-0.8,0.5-2.1,0.3-3.2,0.3c-16,0-32,0.1-48,0.1c-4.1,0-5.6-1.3-5.8-5.3c-0.2-2.6-0.1-5.3,0.4-7.9c0.3-1.4,1.4-3.1,2.6-3.8
		c4.3-2.3,6.3-5.7,6.3-10.5c0-46.6-0.1-93.3-0.1-139.9c0-4.7-1.7-8.2-6.5-9.6c-2.4-0.7-3.5-2.4-3.4-4.9c0.1-2.7,0.2-5.5,0.8-8.2
		c0.5-2.6,2.3-3.9,5.2-3.8c22.4,0.1,44.8-0.2,67.2,0.1c23.4,0.3,44.9,19.7,48.2,43.1c1.2,8.6,1.4,17.2-0.8,25.7
		c-4,15.1-14.3,24.4-28.4,30C564.3,228.2,562.7,228.8,560.5,229.6z M528.7,182.5c-0.1,0-0.1,0-0.2,0c0,11.3,0,22.5,0,33.8
		c0,6.8,0,6.7,6.9,6.7c5.2,0,8.7-2.4,10.3-7.1c1.2-3.6,2.2-7.4,2.3-11.2c0.3-11.2,0.2-22.3,0.2-33.5c0-5.1,0.1-10.2-0.3-15.3
		c-0.6-8.9-5.3-13.2-14.2-13.6c-0.6,0-1.2,0.1-1.8,0c-2.5-0.4-3.4,0.6-3.4,3.2C528.8,157.8,528.7,170.1,528.7,182.5z"/>
	<linearGradient id="SVGID_5_" gradientUnits="userSpaceOnUse" x1="543.8043" y1="58.072" x2="543.8043" y2="40.0158">
		<stop  offset="0" style="stop-color:#F9B462"/>
		<stop  offset="0.448" style="stop-color:#F7931E"/>
		<stop  offset="1" style="stop-color:#F15A24"/>
	</linearGradient>
	<path class="st4" d="M1022.5,40c-158.7,0-317.4,0-476.2,0v0c-158.7,0-317.4,0-476.2,0c-6,0-11.9,0-17.9,0.1
		c8.1,4.1,16.1,8.5,23.7,13.7c1.9,1.3,3.9,2.6,5.8,3.8c1.5,0.2,3,0.4,4.5,0.4c114.5-0.1,229,0,343.6,0c192.1,0,384.1,0,576.2-0.1
		c7.5-5,15.2-9.6,22.5-14c2.2-1.3,4.5-2.6,6.8-3.8C1031.1,40.1,1026.8,40,1022.5,40z"/>
	<linearGradient id="SVGID_6_" gradientUnits="userSpaceOnUse" x1="540" y1="39.0163" x2="540" y2="24">
		<stop  offset="0" style="stop-color:#F9B462"/>
		<stop  offset="0.448" style="stop-color:#F7931E"/>
		<stop  offset="1" style="stop-color:#F15A24"/>
	</linearGradient>
	<path class="st5" d="M14.4,24c11.9,4.5,23.6,9.2,35,14.7c2.5,0.2,5,0.2,7.5,0.2c323.7,0,647.5,0.1,971.2,0c3.1,0,6.2,0.1,9.3,0
		c8.8-4.8,17.9-9.2,26.7-14.1c0.5-0.3,1.1-0.6,1.6-0.9H14.4z"/>
	<linearGradient id="SVGID_7_" gradientUnits="userSpaceOnUse" x1="403.2452" y1="322.4369" x2="403.2452" y2="128.6019">
		<stop  offset="0" style="stop-color:#F9B462"/>
		<stop  offset="0.448" style="stop-color:#F7931E"/>
		<stop  offset="1" style="stop-color:#F15A24"/>
	</linearGradient>
	<path class="st6" d="M378.9,128.6c10.2,0,20.4-0.1,30.6,0c23.8,0.3,42.6,13,50.8,34.4c4.4,11.3,5.8,23.1,4.7,35
		c-0.7,7.8-2,15.6-4.2,23.1c-5.5,19.5-19.9,29.9-38.9,34c-7.3,1.6-15,1.2-22.6,1.3c-2.9,0.1-4,0.7-4,3.7c0.1,12.1,0,24.1,0,36.2
		c0,4.8,2,8.3,6.7,10c2.9,1,4.1,3.3,4.3,6.4c0.5,9.2,0,9.8-9.1,9.8c-16.5,0-33,0-49.5,0c-4.7,0-6-1.3-6.3-6.1
		c-0.1-1.2,0.1-2.4,0-3.5c-0.4-4.1,1.1-6.8,5.3-7.8c2.6-0.6,3.9-2.5,3.9-5.2c0-1.1,0.1-2.2,0.1-3.2c-0.1-46.6-0.2-93.2-0.2-139.9
		c0-5.1-1.5-8.7-6.2-11c-2.4-1.2-3.6-3.2-3.6-5.9c0-2-0.1-3.9,0-5.9c0.2-4.5,1-5.3,5.4-5.3C357.3,128.6,368.1,128.6,378.9,128.6
		C378.9,128.6,378.9,128.6,378.9,128.6z M395.8,192.6c-0.1,0-0.2,0-0.3,0c0,14.8,0,29.6,0,44.4c0,7.1-0.7,5.9,5.9,5.9
		c6.9,0.1,10.8-2.8,12.5-9.5c0.9-3.8,1.3-7.7,1.4-11.6c0.1-19.4,0-38.8,0-58.3c0-2.5-0.2-5.1-0.5-7.6c-1.2-9.6-5.7-13.7-15-13.7
		c-3.8,0-3.9,0-3.9,3.9C395.8,161.6,395.8,177.1,395.8,192.6z"/>
	<linearGradient id="SVGID_8_" gradientUnits="userSpaceOnUse" x1="283.1589" y1="324.8449" x2="283.1589" y2="128.6437">
		<stop  offset="0" style="stop-color:#F9B462"/>
		<stop  offset="0.448" style="stop-color:#F7931E"/>
		<stop  offset="1" style="stop-color:#F15A24"/>
	</linearGradient>
	<path class="st7" d="M285.7,220.8c0,22,0,44,0,66c0,1.8,0.1,3.5,0.5,5.2c1.1,4.7,4.6,8,9,8.6c4.4,0.6,8.4-1.4,10.5-6
		c1.1-2.3,1.7-5.1,1.7-7.6c0.1-44.1,0-88.1,0.1-132.2c0-3.8-1-6.8-4.1-9.2c-3.8-3-5.3-10.1-3.3-14.6c0.5-1.1,2.2-2.2,3.4-2.2
		c8.9-0.2,17.9-0.1,26.8-0.1c2.3,0,3.6,1.4,3.7,3.8c0.1,3.1,0.2,6.3-0.1,9.4c-0.2,1.3-1.4,3-2.5,3.5c-4.8,1.9-6.2,5.4-6.2,10.2
		c0.1,42.7,0,85.4,0,128.1c0,6.3-0.6,12.6-3.1,18.5c-6,14.7-17.7,21.4-33,22.6c-7,0.5-13.9,0-20.7-2c-15.3-4.5-25-16.6-26.8-33.4
		c-0.4-3.7-0.6-7.4-0.6-11.2c0-40.8-0.1-81.7,0-122.5c0-4.9-1.5-8.4-6.1-10.3c-1.9-0.8-2.9-2.3-2.8-4.4c0.1-2.5,0-5.1,0.2-7.6
		c0.4-3.6,1.5-4.5,5.2-4.6c6.3-0.1,12.6,0,18.9,0c10.8,0,21.6,0,32.4,0c3.9,0,4.5,0.6,4.7,4.3c0.1,2.1,0.4,4.2-0.1,6.1
		c-0.5,1.9-1.5,4.1-3,5c-3.6,2.2-4.6,5.2-4.6,9.2C285.8,175.8,285.7,198.3,285.7,220.8C285.7,220.8,285.7,220.8,285.7,220.8z"/>
	<linearGradient id="SVGID_9_" gradientUnits="userSpaceOnUse" x1="653.8232" y1="322.3677" x2="653.8232" y2="128.6319">
		<stop  offset="0" style="stop-color:#F9B462"/>
		<stop  offset="0.448" style="stop-color:#F7931E"/>
		<stop  offset="1" style="stop-color:#F15A24"/>
	</linearGradient>
	<path class="st8" d="M650.6,322.4c-13.1,0-26.1,0-39.2,0c-4.4,0-5.1-0.9-5.6-5.3c-0.5-5,0.8-8.8,5.9-10.8c3.5-1.4,5-4.3,4.9-8.2
		c-0.1-48.7-0.2-97.4-0.1-146.1c0-2.9-1.2-4.6-3.6-5.8c-1.1-0.6-2.3-1.2-3.4-1.7c-2.1-1-3.2-2.6-3.2-4.9c0-2.6,0-5.1,0.1-7.7
		c0-2.1,1.2-3.2,3.3-3.3c0.8,0,1.6,0,2.4,0c24.7,0,49.5,0,74.2,0c5.8,0,6.7,0.7,7.8,6.4c2,10.4,4.1,20.8,6.1,31.2
		c0.7,3.5-0.3,4.9-4,5.2c-1.3,0.1-2.6,0-3.8,0.1c-4.8,0.1-8-1.9-9.6-6.5c-1.7-4.8-3.5-9.6-5.6-14.2c-3.2-7-6.6-8.7-14.1-7.3
		c-0.6,0.1-1.5,1.2-1.6,1.9c-0.3,1.6-0.2,3.3-0.2,5c0,19.2,0,38.5-0.2,57.7c0,3,0.8,3.8,3.8,3.7c10.1-0.2,10.4-0.3,12.3-10.4
		c0-0.1,0-0.2,0.1-0.3c1.8-9,5.6-11.2,14.4-8.2c0.7,0.2,1.5,1.3,1.7,2c0.4,1.8,0.5,3.7,0.5,5.6c0,12.2,0,24.3,0,36.5
		c0,7.2-0.9,8-8.1,8.1c-5.2,0-6.3-0.8-7.6-5.8c-0.8-3.2-1.6-6.5-2.4-9.7c-0.7-2.5-2.4-3.8-5-3.8c-2.5,0-4.9-0.2-7.4,0.1
		c-0.8,0.1-1.9,1.2-2,2c-0.3,1.7-0.2,3.5-0.2,5.3c0,23.9,0,47.9,0,71.8c0,4,0,4,4.1,4c1.4,0,2.8,0,4.1-0.1c3.5-0.3,6.3-1.8,7.6-5.2
		c1.9-4.8,3.6-9.7,5.4-14.6c0.7-1.9,1.4-3.9,2-5.9c2.5-7.9,9.1-8,14.8-6.5c2.2,0.6,3.1,2.4,2.8,4.6c-0.8,5.4-1.6,10.9-2.4,16.3
		c-1,6.4-2,12.8-3.2,19.1c-1,5.2-1.5,5.6-6.8,5.6c-10.8,0-21.6,0-32.4,0.1C654.9,322.3,652.7,322.3,650.6,322.4
		C650.6,322.4,650.6,322.4,650.6,322.4z"/>
	<linearGradient id="SVGID_10_" gradientUnits="userSpaceOnUse" x1="898.9714" y1="322.3238" x2="898.9714" y2="128.69">
		<stop  offset="0" style="stop-color:#F9B462"/>
		<stop  offset="0.448" style="stop-color:#F7931E"/>
		<stop  offset="1" style="stop-color:#F15A24"/>
	</linearGradient>
	<path class="st9" d="M895.8,322.3c-13.1,0-26.1,0-39.2,0c-4.4,0-5.1-0.9-5.5-5.3c-0.4-4.9,0.7-8.6,5.8-10.6
		c4.3-1.7,5.3-5.5,5.3-9.9c0-29.7,0.1-59.5,0-89.2c0-18.2-0.3-36.3-0.3-54.5c0-3.8-1.5-5.7-4.6-7.3c-1.9-1-4.6-2.4-5-4
		c-0.8-3.5-0.3-7.4-0.1-11c0-0.6,1.1-1.3,1.9-1.5c0.9-0.3,1.9-0.3,2.9-0.3c25,0,50.1,0,75.1,0c5.1,0,6.2,0.9,7.2,5.8
		c2.1,10.8,4.1,21.6,6.2,32.3c0.5,2.5-0.5,3.6-2.8,4.3c-7.4,2-12.3-0.5-15.1-7.7c-1.8-4.7-3.5-9.4-5.7-13.9c-2.8-5.9-7.8-7.9-14-6.1
		c-0.6,0.2-1.2,1.2-1.3,1.9c-0.2,1.6-0.2,3.3-0.2,5c-0.1,19.2-0.1,38.5-0.1,57.7c0,3.9,0,3.9,3.9,3.9c10.4,0,10.5-0.1,12.6-10.4
		c0.4-2.1,0.9-4.2,1.5-6.3c0.5-2,1.9-2.9,3.9-2.8c2.5,0.2,5.1,0.4,7.6,0.5c2,0.1,2.8,1.1,2.8,3c0,3.2,0.1,6.5,0.1,9.7
		c0,11.1,0,22.2-0.1,33.3c0,5-0.3,5.2-5.2,5.9c-1.1,0.2-2.2,0.2-3.2,0.2c-4-0.1-5.5-1.2-6.5-5c-0.9-3.4-1.6-6.9-2.6-10.3
		c-0.7-2.7-2.6-4.1-5.4-4c-2.2,0-4.3,0.1-6.5,0c-2.3-0.2-3.1,0.9-3.1,3.1c0,9.4,0,18.8,0,28.3c0,16.1,0.1,32.2,0,48.3
		c0,2.9,0.7,4.3,3.8,3.8c1.3-0.2,2.7,0,4.1-0.1c3.9-0.2,6.8-1.8,8.2-5.6c2.3-6,4.4-12,6.5-18c0.3-0.9,0.6-1.9,1-2.8
		c2.5-5.8,8.8-8.2,14.6-5.8c1.9,0.8,2.7,2.3,2.4,4.3c-0.7,5.4-1.5,10.9-2.4,16.3c-1.1,6.8-2.2,13.5-3.4,20.3
		c-0.7,3.9-1.4,4.5-5.5,4.5C922.3,322.3,909,322.3,895.8,322.3C895.8,322.3,895.8,322.3,895.8,322.3z"/>
	<linearGradient id="SVGID_11_" gradientUnits="userSpaceOnUse" x1="184.105" y1="324.9618" x2="184.105" y2="126.2243">
		<stop  offset="0" style="stop-color:#F9B462"/>
		<stop  offset="0.448" style="stop-color:#F7931E"/>
		<stop  offset="1" style="stop-color:#F15A24"/>
	</linearGradient>
	<path class="st10" d="M214.2,180.4c-5.5,0.7-8.8-1.8-11-6.8c-3.1-7-6.5-13.9-10.1-20.6c-1.8-3.2-4.3-6.1-6.8-8.8
		c-2.1-2.2-4.8-3.5-8-2.2c-3.1,1.3-3.9,4.3-3.7,7.1c0.2,3.3,0.6,6.8,2,9.7c5.2,10.9,10.6,21.6,16.2,32.3c8.7,16.7,18.5,32.8,26.3,50
		c8.1,17.9,9.1,37,4.2,56.1c-2.2,8.4-7,15.3-13.9,20.6c-10.4,8.1-21.6,9-33.4,3.1c-1.2-0.6-2.4-1.4-3.6-2c-3.1-1.5-4.2-1.3-6.1,1.6
		c-2.2,3.3-8.3,5.5-11.8,3.6c-1.4-0.8-2.5-3.2-2.8-5c-1.6-9.6-3-19.2-4.4-28.8c-0.9-5.8-1.7-11.6-2.5-17.5c-0.5-3.4,0.3-4.8,3.7-5
		c3.4-0.2,6.9,0.1,10.2,0.8c1.3,0.3,2.7,2,3.3,3.3c2.3,5.3,4.1,10.8,6.5,16.1c2.2,4.7,4.6,9.3,7.4,13.7c1.4,2.3,3.5,4.3,5.7,5.9
		c5.4,3.8,12.1,1.3,13.5-5.2c0.6-3,0.6-6.4-0.4-9.2c-2.3-6.3-5-12.6-8.3-18.5c-8.9-15.6-18.3-30.9-27.2-46.5
		c-7-12.4-13.2-25.3-15.6-39.5c-2-11.6-2.1-23.2,0.9-34.7c2-7.7,5.6-14.5,11.4-19.9c7.7-7.3,16.7-9.7,26.9-6.2
		c4.1,1.4,8.1,3.4,12,5.5c2,1.1,3.2,0.9,4.3-1c0.2-0.4,0.6-0.8,0.9-1.2c4.1-6.1,6.3-5.3,13-4c0.9,0.2,1.9,2.1,2.1,3.4
		c1.1,6,2.1,12,3,18c1.3,8.2,2.6,16.5,3.9,24.7c0.1,0.9,0.2,1.8,0.3,2.6c0.5,2.9-1,4.2-3.7,4.4C217,180.3,215.6,180.4,214.2,180.4z"
		/>
	<linearGradient id="SVGID_12_" gradientUnits="userSpaceOnUse" x1="399.5271" y1="506.5271" x2="399.5271" y2="303.4248">
		<stop  offset="0" style="stop-color:#F9B462"/>
		<stop  offset="0.448" style="stop-color:#F7931E"/>
		<stop  offset="1" style="stop-color:#F15A24"/>
	</linearGradient>
	<path class="st11" d="M473.4,319.1c-0.1,1.2,0,1.8-0.3,2.2c-2.5,3.1-0.7,6.1,0.3,9.1c10.7,31.7,21.5,63.3,32.3,94.9
		c1,3,1.4,5.8-0.3,8.7c-0.4,0.7-0.1,1.9,0.1,2.7c1.1,3.4,2.4,6.8,3.5,10.3c1.1,3.4,0.7,4.3-2.7,5.5c-9.2,3.2-18.5,6.3-27.8,9.5
		c-42.6,14.5-85.2,28.9-127.8,43.4c-0.6,0.2-1.3,0.5-1.9,0.7c-3.3,1-4.5,0.4-5.6-2.8c-1.2-3.4-2.3-6.9-3.6-10.3
		c-0.3-0.9-0.9-1.9-1.6-2.3c-3-1.5-4.3-4-5.4-7c-11.1-32.9-22.2-65.8-33.5-98.7c-0.3-1-1.4-1.7-2.1-2.5c-1.5-1.6-3.3-3-4.3-4.8
		c-1.2-2.2-1.8-4.8-2.6-7.2c-1.8-5.4,0.1-9.3,5.5-11.1c30.6-10.4,61.1-20.7,91.7-31.1c23.6-8,47.3-16,70.9-24
		c6.7-2.3,9.8-0.8,12.1,5.9C471.5,313.5,472.6,316.6,473.4,319.1z M499.2,429.8c-0.3-1.2-0.4-1.7-0.6-2.3
		c-7.8-23.2-15.7-46.4-23.5-69.6c-0.8-2.5-2.1-1.7-3.6-1.2c-17,5.7-34,11.5-50.9,17.2c-7.3,2.5-14.6,5-22.1,7.5
		c0.6,1.9,1,3.6,1.6,5.2c2.7,7.9,5.4,15.7,8.1,23.6c1,3,0.3,4.8-2,5.6c-2.5,0.9-4-0.1-5.1-3.3c-2.9-8.4-5.9-16.8-8.6-25.3
		c-0.9-2.7-1.9-3.2-4.6-2.3c-19.2,6.6-38.5,13.1-57.8,19.7c-4.8,1.6-9.6,3.2-14.5,4.9c0.5,1.7,0.8,3,1.2,4.3
		c2.7,8.1,5.5,16.1,8.2,24.1c4.9,14.3,9.7,28.7,14.5,43c0.6,1.8,1.3,2.6,3.3,1.7c2.4-1,5-1.7,7.5-2.5c20.8-7.1,41.6-14.2,62.5-21.2
		c2.9-1,3.4-2.2,2.3-4.8c-1.2-2.9-2.3-5.9-2.8-8.9c-0.2-1.3,0.8-3.5,1.8-4c1.1-0.5,3.1,0.3,4.3,1.1c0.8,0.5,1.1,2,1.5,3.1
		c1.2,3.3,2.3,6.6,3.5,10.1C448.9,446.9,473.9,438.4,499.2,429.8z M299.9,375.6c1.4-0.4,2.3-0.6,3.2-0.9
		c43.5-14.7,86.9-29.4,130.4-44.1c9.9-3.4,19.8-6.8,29.7-10.3c0.9-0.3,2.2-1.6,2-2.1c-0.6-2.5-1.6-4.9-2.6-7.6
		C407.3,329.3,352.3,348,297,366.8C298,369.9,298.9,372.6,299.9,375.6z M500.8,446.6c-0.5-1.6-0.8-2.9-1.2-4.1
		c-1.4-4.3-1.4-4.4-5.8-2.9c-48.4,16.3-96.7,32.7-145.1,49.1c-0.7,0.2-1.3,0.6-2.1,1c0.9,2.8,1.7,5.4,2.7,8.2
		C399.8,480.8,450.2,463.8,500.8,446.6z M464.8,327.6c-15.8,5.4-31.2,10.6-46.6,15.8c-1.8,0.6-1.7,1.5-1.2,2.9
		c1.8,5.4,3.7,10.7,5.4,16.2c0.7,2.4,1.9,2.6,4.1,1.9c12.5-4.4,25.1-8.6,37.7-12.9c2.5-0.9,5.1-1.8,7.7-2.8
		C469.5,341.5,467.2,334.8,464.8,327.6z M361.3,386.2c-2.1-6.3-4.2-12-6-17.8c-0.8-2.5-1.7-3.2-4.3-2.2
		c-12.8,4.5-25.7,8.8-38.6,13.2c-2.1,0.7-4.2,1.5-6.5,2.3c2.4,7.1,4.7,14,7.1,21C329.2,397.1,345.1,391.7,361.3,386.2z M409.4,346.4
		c-16.3,5.5-32.1,10.9-48.2,16.3c2.5,7.3,4.8,14.1,7.2,21.1c16.3-5.6,32.1-10.9,48.1-16.4C414.1,360.3,411.8,353.6,409.4,346.4z"/>
	<linearGradient id="SVGID_13_" gradientUnits="userSpaceOnUse" x1="618.6459" y1="395.5316" x2="618.6459" y2="325.9442">
		<stop  offset="0" style="stop-color:#F9B462"/>
		<stop  offset="0.448" style="stop-color:#F7931E"/>
		<stop  offset="1" style="stop-color:#F15A24"/>
	</linearGradient>
	<path class="st12" d="M628,355.7c0.5,0.5,0.6,0.6,0.8,0.7c10.9,4.3,13.6,11,11.4,23.9c-1.6,9.4-7.9,14.5-18.4,15
		c-7.7,0.4-15.5,0.2-23.3,0.1c-0.8,0-2.2-0.8-2.2-1.2c0-1.6,0-3.7,1-4.5c1.9-1.6,2.5-3.3,2.5-5.6c0-15.8,0-31.6,0-47.4
		c0-2.1-0.4-3.6-2.3-5c-0.9-0.6-1-2.8-0.9-4.2c0.1-0.6,1.7-1.4,2.7-1.4c8-0.1,15.9-0.3,23.9-0.1c11.6,0.3,18.8,9.6,15.6,19.7
		c-1.3,4.2-4.4,6.9-8.2,8.8C629.8,354.9,629,355.3,628,355.7z M615.8,390.3c4.6,0.6,6.6-0.5,6.7-4.6c0.3-7.7,0-15.5,0-23.2
		c0-0.5-0.1-1-0.2-1.4c-0.7-2.3-2.6-2.7-4.7-2.7c-2.5,0.1-1.7,2-1.7,3.3c-0.1,6.5-0.1,12.9-0.1,19.4
		C615.8,384.2,615.8,387.3,615.8,390.3z M615.9,353.4c4.3,0.4,6.4-0.5,6.6-3.6c0.4-5.1,0.2-10.4-0.1-15.5c-0.2-2.6-2.2-3.8-4.8-3.6
		c-0.6,0.1-1.6,0.9-1.6,1.4C615.9,339.2,615.9,346.2,615.9,353.4z"/>
	<linearGradient id="SVGID_14_" gradientUnits="userSpaceOnUse" x1="689.4734" y1="395.6095" x2="689.4734" y2="325.7239">
		<stop  offset="0" style="stop-color:#F9B462"/>
		<stop  offset="0.448" style="stop-color:#F7931E"/>
		<stop  offset="1" style="stop-color:#F15A24"/>
	</linearGradient>
	<path class="st13" d="M680.8,358.1c0,4.4,0,8.7,0,13.1c0,4.6,0,9.2-0.1,13.8c0,2,0.4,3.7,2.4,4.6c2.1,1,2,2.9,1.5,4.5
		c-0.2,0.6-2,1-3.1,1.1c-2.5,0.2-5.1,0.2-7.7,0.1c-1-0.1-2.8-0.7-2.8-1.2c-0.1-1.5,0-3.7,0.9-4.5c1.8-1.4,2.3-2.9,2.3-5
		c0-15.7,0-31.4,0-47.1c0-2.4-0.2-4.6-2.4-6.3c-0.8-0.6-1-2.7-0.8-3.9c0.1-0.6,1.8-1.3,2.8-1.3c3.3-0.1,7.3-1,9.8,0.5
		c2.3,1.4,2.9,5.5,4.3,8.4c3.3,7.5,6.6,15,10.5,22.5c0.1-0.6,0.2-1.2,0.2-1.8c0-6.5,0-13,0-19.4c0-2-0.6-3.4-2.3-4.8
		c-1-0.8-1.1-2.8-1.6-4.3c1.1-0.4,2.2-1,3.3-1c2.5-0.2,5.1-0.2,7.7,0c0.9,0.1,2.5,0.7,2.5,1.2c0.1,1.4,0.1,3.6-0.8,4.2
		c-2.1,1.4-2.4,3.2-2.4,5.3c0.1,18.3,0.1,36.5,0.1,54.8c0,1.3,1.1,3.7-1.5,3.7c-2.3,0-5.3,1.6-6.8-2.1c-4.5-10.8-9.1-21.5-13.7-32.2
		c-0.4-1-0.9-1.9-1.3-2.9C681.3,358.1,681,358.1,680.8,358.1z"/>
	<linearGradient id="SVGID_15_" gradientUnits="userSpaceOnUse" x1="573.4004" y1="395.5274" x2="573.4004" y2="325.9453">
		<stop  offset="0" style="stop-color:#F9B462"/>
		<stop  offset="0.448" style="stop-color:#F7931E"/>
		<stop  offset="1" style="stop-color:#F15A24"/>
	</linearGradient>
	<path class="st14" d="M583.2,395.5c-2.5,0-4.9,0.1-7.4,0c-1-0.1-2.8-0.6-2.9-1.1c-0.2-1.3,0.3-2.8,0.7-4.1c0.4-1.5,1.7-2.9,1.6-4.3
		c-0.3-5.1-0.4-5.1-5.7-5.2c-0.2,0-0.4-0.1-0.6,0c-1.7,0.5-4.1-1.3-5.1,1.3c-1.5,3.7-0.9,5.5,1.4,8.1c0.9,1,0.9,2.8,0.9,4.3
		c0,0.3-1.7,0.9-2.7,0.9c-2.3,0.2-4.7,0.1-7.1,0.1c-3.1,0-4.5-1.6-2.9-4.1c4.7-7,4-15.2,5.5-22.9c2.1-10.7,3.5-21.5,5-32.2
		c0.2-1.4-0.8-3-1.2-4.5c-0.4-1.5-0.9-3.1-0.7-4.6c0.1-0.5,2-1.1,3.1-1.1c4.1-0.1,8.2,0,12.4,0c3.8,0,4.3,0.4,4.9,4.3
		c1.2,8.1,2.4,16.3,3.6,24.4c1.4,9.7,2.8,19.4,4.4,29.1c0.3,2,1.8,3.8,2.4,5.8c0.5,1.6,0.8,3.3,0.7,4.9c0,0.4-2.1,0.9-3.3,0.9
		C588.1,395.6,585.7,395.5,583.2,395.5C583.2,395.5,583.2,395.5,583.2,395.5z M574.1,375.8c-1.5-10.7-2.9-21-4.3-31.2
		c-0.2,0-0.3,0-0.5,0c-1.6,10.3-3.2,20.7-4.8,31.3C567.7,375.8,570.6,375.8,574.1,375.8z"/>
	<linearGradient id="SVGID_16_" gradientUnits="userSpaceOnUse" x1="727.8439" y1="395.4327" x2="727.8439" y2="326.0203">
		<stop  offset="0" style="stop-color:#F9B462"/>
		<stop  offset="0.448" style="stop-color:#F7931E"/>
		<stop  offset="1" style="stop-color:#F15A24"/>
	</linearGradient>
	<path class="st15" d="M731.1,390.5c2.8,0.7,4.8-0.2,5.7-3.1c0.7-2,1.5-4.1,2.3-6.1c0.8-2.1,2.7-2.9,4.5-2c0.8,0.4,1.3,2.4,1.2,3.6
		c-0.4,3.5-1,7-1.8,10.4c-0.2,0.8-1.5,1.9-2.3,1.9c-9.2,0.2-18.5,0.2-27.7,0.1c-0.7,0-2.1-0.9-2.1-1.3c0-1.4,0.1-3.6,1-4.2
		c2.2-1.4,2.5-3.2,2.5-5.5c0-15.9,0-31.8,0.1-47.7c0-2.1-0.2-3.9-2.3-5.3c-0.9-0.6-1-2.8-1-4.2c0-0.5,1.8-1.1,2.8-1.2
		c8.3-0.1,16.5,0,24.8,0c2.2,0,3.3,0.7,3.6,2.9c0.5,2.8,1.3,5.5,1.6,8.4c0.1,1.2-0.3,3.3-1,3.6c-1.8,0.7-3.7,0.2-4.6-2
		c-0.6-1.5-1.1-2.9-1.7-4.4c-0.4-0.9-0.7-2.1-1.4-2.5c-1-0.7-2.4-1.1-3.7-1.1c-0.3,0-1.1,1.6-1.1,2.6c-0.1,6.7-0.1,13.4,0,20
		c0,0.9,1.1,2.5,1.4,2.5c1.4-0.3,2.8-0.8,3.9-1.7c0.6-0.5,0.7-1.8,0.8-2.8c0.2-2.1,1.5-2.4,3.3-2.3c2,0.1,2,1.5,2,2.9
		c0,4.3,0.2,8.6,0,13c0,0.9-1.1,2.3-1.9,2.6c-1.5,0.5-2.9,0-3.4-1.9c-0.3-1.1-0.3-2.6-1-3.3c-0.8-0.8-2.2-1.3-3.4-1.5
		c-0.5-0.1-1.6,1.1-1.6,1.8c-0.1,9-0.1,18.1,0,27.1C730.7,390,730.9,390.2,731.1,390.5z"/>
	<linearGradient id="SVGID_17_" gradientUnits="userSpaceOnUse" x1="767.5536" y1="395.4643" x2="767.5536" y2="326.0826">
		<stop  offset="0" style="stop-color:#F9B462"/>
		<stop  offset="0.448" style="stop-color:#F7931E"/>
		<stop  offset="1" style="stop-color:#F15A24"/>
	</linearGradient>
	<path class="st16" d="M775.6,331c0,1.1,0,2.1,0,3.2c0,16.8,0,33.6-0.1,50.3c0,2.1,0.3,3.9,2.3,5.4c0.9,0.7,1.1,2.8,1,4.2
		c0,0.5-1.8,1.2-2.8,1.2c-5.5,0.2-11,0.2-16.5,0.1c-1.1,0-2.9-0.8-3-1.3c-0.2-1.4,0-3.5,1-4.2c1.9-1.4,2.1-3.1,2.1-5.1
		c0-17,0.1-33.9,0-50.9c0-1.1-0.8-2.1-1.2-3.2c-0.9,0.9-2.3,1.7-2.7,2.8c-0.7,2-0.9,4.2-1.3,6.3c-0.4,2.3-2.1,2.6-4,2.4
		c-1.9-0.2-2-1.6-1.9-3c0.2-3.6,0.3-7.3,0.8-10.8c0.1-0.9,1.5-2.2,2.4-2.2c10.6-0.2,21.2-0.2,31.8,0c0.7,0,1.9,1.1,2,1.9
		c0.6,3.6,0.9,7.2,1.2,10.8c0.1,1.5,0,3.1-2,3.3c-1.9,0.2-3.5-0.2-3.9-2.5c-0.5-2.2-0.9-4.4-1.7-6.5c-0.4-1-1.5-1.8-2.3-2.7
		C776.3,330.6,775.9,330.8,775.6,331z"/>
	<linearGradient id="SVGID_18_" gradientUnits="userSpaceOnUse" x1="804.7361" y1="396.8277" x2="804.7361" y2="324.6714">
		<stop  offset="0" style="stop-color:#F9B462"/>
		<stop  offset="0.448" style="stop-color:#F7931E"/>
		<stop  offset="1" style="stop-color:#F15A24"/>
	</linearGradient>
	<path class="st17" d="M806.1,396.6c-0.5-0.1-1.8-0.2-3-0.7c-2.1-0.8-3.9-1.6-6.2,0.3c-1.8,1.4-3.5,0.4-3.9-2
		c-0.8-5-1.5-10.1-2-15.2c-0.1-1.1,0.5-3,1.2-3.2c1.9-0.6,3.9-0.4,4.8,2.1c0.9,2.6,1.8,5.2,2.9,7.7c0.8,1.8,1.8,3.5,3.1,4.9
		c0.8,0.8,2.6,1.4,3.6,1c0.9-0.4,2-2.1,1.9-3.2c-0.3-2.5-1-5-2.1-7.2c-3.8-7.1-7.9-14-11.8-21.1c-4.1-7.5-6.2-15.5-4.2-24.1
		c0.6-2.6,1.9-5.2,3.5-7.3c3.2-4.2,7.1-4.8,12.7-2.5c1.7,0.7,3,1.2,4.7-0.5c2-2,4.3-0.8,4.8,2.1c0.7,4.3,1.4,8.5,1.9,12.8
		c0.1,1.1-0.2,3.1-0.8,3.3c-1.7,0.6-3.8,0.7-4.9-1.4c-0.6-1.2-1.1-2.5-1.8-3.7c-1.2-2.3-2.3-4.8-3.8-6.9c-0.8-1-2.5-1.4-3.8-2
		c-0.4,1.4-1.4,2.9-1.2,4.2c0.4,2.3,1.3,4.5,2.4,6.6c3.8,7.4,7.9,14.7,11.8,22c3.7,7.2,4.9,14.8,3.3,22.8
		C817.8,391.9,812.6,396.6,806.1,396.6z"/>
	<linearGradient id="SVGID_19_" gradientUnits="userSpaceOnUse" x1="535.3515" y1="396.7102" x2="535.3515" y2="324.7177">
		<stop  offset="0" style="stop-color:#F9B462"/>
		<stop  offset="0.448" style="stop-color:#F7931E"/>
		<stop  offset="1" style="stop-color:#F15A24"/>
	</linearGradient>
	<path class="st18" d="M537.4,361.8c0,7.8,0,15.5,0,23.3c0,0.7,0,1.4,0,2.1c0.1,2,0.1,4.3,2.6,4.6c2.7,0.3,3.2-2.1,3.7-4.1
		c0.4-1.7,0.6-3.5,0.8-5.2c0.3-2.6,1.9-3.4,4.3-3.3c2.4,0.1,2.8,1.6,2.8,3.6c0,5.8-3.3,11.1-8.3,13.1c-5.3,2-12.1,0.7-15.4-4.2
		c-2.9-4.3-5.4-9.2-6.6-14.2c-2.9-11.3-2.9-22.8-0.1-34.1c1-4.3,3.1-8.5,5.5-12.2c4-6.1,9.3-7.3,16.1-4.6c0.7,0.3,2-0.1,2.8-0.6
		c2.9-2,4.8-1.4,5.2,2.1c0.5,5,0.8,10,0.9,15c0,0.9-1.2,2.8-1.7,2.7c-1.2-0.1-3.1-0.8-3.5-1.8c-1-2.3-1.2-4.9-2-7.3
		c-0.8-2.3-1.2-5.9-4.2-5.6c-3.1,0.3-2.6,3.9-2.7,6.4C537.3,345.5,537.4,353.6,537.4,361.8z"/>
	<linearGradient id="SVGID_20_" gradientUnits="userSpaceOnUse" x1="933.2181" y1="396.6492" x2="933.2181" y2="324.7823">
		<stop  offset="0" style="stop-color:#F9B462"/>
		<stop  offset="0.448" style="stop-color:#F7931E"/>
		<stop  offset="1" style="stop-color:#F15A24"/>
	</linearGradient>
	<path class="st19" d="M935.2,361.7c0,8,0,16.1,0,24.1c0,1-0.2,2.1,0.2,2.9c0.5,1.1,1.5,2.9,2.3,2.9c1.1,0,2.8-1.2,3.2-2.2
		c0.8-2.1,1.1-4.5,1.4-6.9c0.3-2.6,1.8-3.5,4.2-3.4c2.6,0.1,2.8,1.9,2.8,3.9c-0.1,5.8-3.6,11.1-8.6,12.9c-5.3,1.9-11.7,0.2-15.4-4.5
		c-4.9-6.1-6.8-13.4-7.6-21c-1-9-1.2-18.1,1.2-26.9c1.3-4.8,3.7-9.5,6.5-13.6c3.1-4.7,9.7-6.7,14.9-3.4c0.6,0.4,2.1,0.1,2.8-0.3
		c3.3-2.2,4.8-1.8,5.2,2.2c0.5,4.8,0.8,9.6,1,14.4c0,1-1.1,2.1-1.7,3.1c-1.2-0.8-3-1.3-3.5-2.4c-1-2-1.1-4.4-1.7-6.5
		c-0.6-1.8-1.2-3.6-2.3-5c-1.3-1.9-3.3-1.6-4.1,0.6c-0.6,1.5-0.8,3.2-0.8,4.9C935.1,345.4,935.2,353.6,935.2,361.7
		C935.2,361.7,935.2,361.7,935.2,361.7z"/>
	<linearGradient id="SVGID_21_" gradientUnits="userSpaceOnUse" x1="861.0897" y1="395.4467" x2="861.0897" y2="326.0199">
		<stop  offset="0" style="stop-color:#F9B462"/>
		<stop  offset="0.448" style="stop-color:#F7931E"/>
		<stop  offset="1" style="stop-color:#F15A24"/>
	</linearGradient>
	<path class="st20" d="M863.9,390.5c3,0.8,4.9-0.2,5.8-3c0.7-2,1.4-4.1,2-6.1c0.8-2.6,2.9-2.4,4.8-2.1c2.2,0.3,1.5,2.1,1.3,3.5
		c-0.5,3.4-1,6.8-1.4,10.2c-0.2,1.7-1.1,2.6-2.9,2.6c-8.9,0-17.9,0.1-26.8,0c-0.9,0-2.4-0.8-2.5-1.3c-0.2-1.2,0-3.2,0.7-3.7
		c2.3-1.5,2.6-3.5,2.6-5.8c0-16.2,0.1-32.4,0-48.5c0-1.5-1.3-3-1.9-4.5c-0.5-1.4-1-2.8-1-4.2c0-0.4,1.8-1.1,2.8-1.2
		c5.7-0.1,11.4-0.1,17.1,0c1,0,2.7,1,2.7,1.7c0.1,1.2-0.7,2.6-1.3,3.8c-0.7,1.4-2.3,2.6-2.3,4c-0.1,17.7,0,35.5,0.1,53.2
		C863.6,389.3,863.8,389.9,863.9,390.5z"/>
	<linearGradient id="SVGID_22_" gradientUnits="userSpaceOnUse" x1="897.0429" y1="395.4442" x2="897.0429" y2="325.9923">
		<stop  offset="0" style="stop-color:#F9B462"/>
		<stop  offset="0.448" style="stop-color:#F7931E"/>
		<stop  offset="1" style="stop-color:#F15A24"/>
	</linearGradient>
	<path class="st21" d="M899.8,390.5c3,0.8,4.8-0.2,5.8-3c0.6-2,1.4-3.9,1.9-5.9c0.7-2.8,2.9-2.8,4.9-2.4c2.4,0.4,1.4,2.3,1.2,3.8
		c-0.5,3.3-1,6.6-1.4,9.9c-0.2,1.7-1.1,2.6-2.9,2.6c-8.8,0-17.7,0.1-26.5,0c-0.9,0-2.6-0.8-2.7-1.5c-0.2-1.2,0.1-3.1,0.9-3.6
		c2.1-1.5,2.5-3.4,2.5-5.6c0-16.3,0.1-32.6,0-48.9c0-1.4-1.3-2.8-1.8-4.2c-0.5-1.4-1.2-2.8-1.2-4.2c0-0.5,1.9-1.3,3-1.3
		c5.5-0.1,11-0.1,16.5,0c1.1,0,2.8,0.8,3.2,1.6c0.7,1.4,0.2,2.9-1.4,4c-1.1,0.8-2.2,2.4-2.2,3.7c-0.1,17.9,0,35.7,0.1,53.6
		C899.5,389.5,899.7,390,899.8,390.5z"/>
	<linearGradient id="SVGID_23_" gradientUnits="userSpaceOnUse" x1="656.1219" y1="395.4903" x2="656.1219" y2="325.9591">
		<stop  offset="0" style="stop-color:#F9B462"/>
		<stop  offset="0.448" style="stop-color:#F7931E"/>
		<stop  offset="1" style="stop-color:#F15A24"/>
	</linearGradient>
	<path class="st22" d="M656.4,326c2.9,0,5.9-0.1,8.8,0.1c1,0.1,2.6,0.9,2.7,1.4c0,1.4-0.2,3.6-1.1,4.1c-2.4,1.2-2.8,3-2.8,5.3
		c0,16.2,0.1,32.4,0,48.6c0,1.9,0.7,3.2,2.2,4.5c1,0.8,1.3,2.8,1.3,4.3c0,0.4-1.9,1.2-3,1.2c-5.9,0.1-11.8,0.2-17.7,0.1
		c-1,0-2.7-0.9-2.7-1.3c0.1-1.5,0.3-3.8,1.2-4.3c2.2-1.3,2.6-2.9,2.6-5.1c0-15.6,0-31.2,0.1-46.8c0-2.6-0.1-5-2.8-6.6
		c-0.8-0.5-1-2.6-0.8-3.9c0.1-0.6,1.8-1.3,2.7-1.3C650.3,325.9,653.4,326,656.4,326C656.4,326,656.4,326,656.4,326z"/>
	<linearGradient id="SVGID_24_" gradientUnits="userSpaceOnUse" x1="383.3047" y1="441.9725" x2="383.3047" y2="394.4251">
		<stop  offset="0" style="stop-color:#F9B462"/>
		<stop  offset="0.448" style="stop-color:#F7931E"/>
		<stop  offset="1" style="stop-color:#F15A24"/>
	</linearGradient>
	<path class="st23" d="M381.9,442c-1-0.9-2.7-1.8-3.1-3c-4.1-11.5-7.9-23.1-11.8-34.7c-0.9-2.7,0.4-4.3,2.9-5.2c4-1.4,8-2.7,12-4
		c3.7-1.2,5.1-0.6,6.5,3.2c1.9,5,3.5,10.1,5.3,15.2c1.9,5.7,3.9,11.5,5.8,17.2c1.2,3.6,0.4,5.2-3.2,6.5
		C391.6,438.7,387.1,440.2,381.9,442z M384.6,433.1c1.7-0.6,2.9-1.1,4.2-1.4c2.2-0.5,2.7-1.6,1.8-3.8c-1.5-3.9-2.7-8-4.1-11.9
		c-1.5-4.3-3-8.6-4.6-13.1c-2.5,0.9-4.5,1.6-6.8,2.4C378.3,414.6,381.4,423.7,384.6,433.1z"/>
	<linearGradient id="SVGID_25_" gradientUnits="userSpaceOnUse" x1="425.6936" y1="427.3046" x2="425.6936" y2="380.1716">
		<stop  offset="0" style="stop-color:#F9B462"/>
		<stop  offset="0.448" style="stop-color:#F7931E"/>
		<stop  offset="1" style="stop-color:#F15A24"/>
	</linearGradient>
	<path class="st24" d="M442.5,419.2c-1.1,1.1-2,2.6-3.2,3.2c-4.3,1.8-8.8,3.2-13.3,4.7c-2.5,0.8-4.5-0.2-5.3-2.7
		c-3.8-11.2-7.6-22.4-11.4-33.6c-1-3-0.1-4.8,3-5.9c4.1-1.5,8.3-2.8,12.5-4.2c2.5-0.9,4.4,0.1,5.2,2.4c4,11.5,7.9,23.1,11.8,34.6
		c0.1,0.4,0.1,0.8,0.2,1.2C442.2,418.9,442.3,419,442.5,419.2z M424.2,388.6c-2.5,0.8-4.6,1.6-7,2.4c3.2,9.5,6.4,18.7,9.6,28
		c2.6-1,4.7-1.7,6.9-2.5C430.5,407,427.4,397.9,424.2,388.6z"/>
	<linearGradient id="SVGID_26_" gradientUnits="userSpaceOnUse" x1="410.3698" y1="431.9979" x2="410.3698" y2="424.8704">
		<stop  offset="0" style="stop-color:#F9B462"/>
		<stop  offset="0.448" style="stop-color:#F7931E"/>
		<stop  offset="1" style="stop-color:#F15A24"/>
	</linearGradient>
	<path class="st25" d="M410.2,432c-1.8-0.3-3.5-1.1-3.4-3.4c0-2.1,1.1-3.8,3.6-3.8c2.2,0.1,3.6,1.4,3.6,3.5
		C413.9,430.3,412.8,431.9,410.2,432z"/>
	<linearGradient id="SVGID_27_" gradientUnits="userSpaceOnUse" x1="444.2804" y1="349.8746" x2="444.2804" y2="343.0224">
		<stop  offset="0" style="stop-color:#F9B462"/>
		<stop  offset="0.448" style="stop-color:#F7931E"/>
		<stop  offset="1" style="stop-color:#F15A24"/>
	</linearGradient>
	<path class="st26" d="M440.8,345.3c0.7-0.5,1.9-2,3.3-2.2c2-0.3,3.7,0.9,3.6,3.2c-0.1,2.1-1.3,3.6-3.5,3.6
		C442.2,349.8,440.7,348.7,440.8,345.3z"/>
	<linearGradient id="SVGID_28_" gradientUnits="userSpaceOnUse" x1="333.602" y1="387.3262" x2="333.602" y2="380.3023">
		<stop  offset="0" style="stop-color:#F9B462"/>
		<stop  offset="0.448" style="stop-color:#F7931E"/>
		<stop  offset="1" style="stop-color:#F15A24"/>
	</linearGradient>
	<path class="st27" d="M337.2,385.2c-1,0.7-2.3,2.1-3.7,2.2c-1.8,0.1-3.8-0.8-3.6-3.3c0.2-2.2,1.3-3.8,3.6-3.8
		C336,380.3,336.8,382.1,337.2,385.2z"/>
	<linearGradient id="SVGID_29_" gradientUnits="userSpaceOnUse" x1="388.9071" y1="368.64" x2="388.9071" y2="361.6237">
		<stop  offset="0" style="stop-color:#F9B462"/>
		<stop  offset="0.448" style="stop-color:#F7931E"/>
		<stop  offset="1" style="stop-color:#F15A24"/>
	</linearGradient>
	<path class="st28" d="M385.4,366.2c0-3,1.1-4.5,3.2-4.6c2-0.1,3.6,1.1,3.7,3.3c0.1,2.1-1.1,3.7-3.3,3.7
		C387.1,368.7,385.6,367.7,385.4,366.2z"/>
</g>
</svg>
