<?xml version="1.0" encoding="UTF-8"?>
<svg id="Layer_1" data-name="Layer 1" xmlns="http://www.w3.org/2000/svg" viewBox="0 0 352.63 47.35">
  <defs>
    <style>
      .cls-1 {
        fill: #fff;
        stroke-width: 0px;
      }
    </style>
  </defs>
  <g id="Layer_2" data-name="Layer 2">
    <g id="Layer_1-2" data-name="Layer 1-2">
      <path class="cls-1" d="M54.34,14.09c-2.43-.02-4.84-.31-7.2-.87-2.66-.6-5.24-1.46-7.73-2.57-2.56-1.13-5-2.53-7.27-4.18-2.2-1.63-4.16-3.57-5.8-5.76l-.51-.71-.58.68L.42,30.06l-.42.48.45.46c1.4,1.38,2.92,2.62,4.55,3.71,1.73,1.16,3.53,2.19,5.4,3.11-1,2-2,3.73-2.86,5.27s-1.54,2.75-2.07,3.61h14.53l8.27-.06h14.46c1.8.24,3.25.4,4.35.48,1.1.11,1.74.16,1.93.16l.62.07.1-.62,5.27-31.83.13-.81h-.81M37.8,11.42l-6.37,15.19c-1.77-.66-3.49-1.43-5.15-2.32l7.95-14.8c1.16.71,2.35,1.35,3.57,1.93M29.21,5.84c1.38,1.23,2.87,2.34,4.44,3.31l-8,14.9c-2.27-1.23-4.44-2.63-6.5-4.18l10-14M25.77,2.2c.88,1.15,1.86,2.21,2.93,3.19l-10,14.05c-.94-.72-1.84-1.48-2.7-2.29-.69-.66-1.24-1.18-1.54-1.54L25.77,2.19M14,16.14c.97,1.04,2.01,2.02,3.1,2.93,1.86,1.55,3.83,2.97,5.9,4.23,1.2.73,2.45,1.4,3.72,2,1.46.74,2.95,1.41,4.48,2l-1.74,4.21c-2.49-.64-4.92-1.52-7.24-2.64-1.96-.94-3.84-2.04-5.63-3.28-1.39-.94-2.73-1.96-4-3.06-.78-.66-1.51-1.37-2.2-2.12l3.61-4.27M9.92,20.92c.73.76,1.49,1.47,2.29,2.15,1.27,1.11,2.61,2.15,4,3.11,1.81,1.22,3.72,2.3,5.69,3.24,2.31,1.12,4.73,2,7.21,2.64l-2,4.77c-2.75-.54-5.43-1.37-8-2.48-2.18-.93-4.28-2.05-6.26-3.35-1.52-1.01-2.97-2.12-4.34-3.32-.82-.71-1.59-1.47-2.31-2.29l3.72-4.47M1.92,30.42l3.83-4.5c.77.83,1.59,1.61,2.44,2.35,1.4,1.2,2.87,2.31,4.41,3.31,1.99,1.31,4.08,2.45,6.25,3.42,2.57,1.11,5.25,1.95,8,2.49l-1.77,4.18c-2.91-.78-5.78-1.7-8.59-2.77-2.76-1.03-5.44-2.27-8-3.72-2.39-1.3-4.61-2.9-6.6-4.75M25.77,41.83l6-14.33c1.72.62,3.58,1.19,5.59,1.71l-4,14.37c-2.42-.47-4.94-1.05-7.56-1.74M34,43.7l4-14.33c2.12.52,4.26.91,6.43,1.16l-2.67,14.47c-2.27-.3-4.85-.73-7.76-1.28M48.52,45.72l-2.32-.22c-1-.11-2.3-.26-3.76-.46l2.67-14.44c1.95.24,3.92.37,5.89.4l-2.48,14.76M51.09,30.28c-3.48-.04-6.94-.38-10.36-1-2.97-.56-5.89-1.37-8.73-2.41l2-4.83c.46.17,1.28.45,2.48.84s2.64.79,4.35,1.24,3.45.84,5.34,1.16c1.85.34,3.71.55,5.59.62l-.71,4.41M52,25.19c-1.86-.04-3.71-.22-5.54-.54-1.86-.34-3.63-.73-5.28-1.16s-3.1-.83-4.28-1.24-2-.67-2.48-.84l2-4.86c.45.18,1.26.46,2.44.84s2.52.8,4.09,1.24,3.21.84,4.93,1.16c1.6.32,3.22.53,4.85.62l-.77,4.74M52.86,19.74c-1.6-.08-3.19-.29-4.76-.62-1.68-.33-3.29-.71-4.86-1.16s-2.94-.87-4.12-1.25-2-.66-2.41-.83l1.74-4.18c2.51,1.12,5.11,2.02,7.78,2.67,2.4.61,4.86.96,7.34,1.06l-.71,4.31"/>
      <path class="cls-1" d="M81.55,20.08h3.13c-.44.73-.78,1.52-1,2.34h0l-2.14,8.29s-.26.95-.36,1.25h0c-.16.4-.4.77-.7,1.09h0c-.41.31-.89.53-1.4.63h0c-.26.05-.53.09-.8.1h-8s-2,0-2.72-.77h0c-.35-.47-.54-1.04-.55-1.63h0c.03-.47.11-.93.25-1.38h0l2.13-8.14c.1-.35.14-.71.14-1.07h0c0-.25-.05-.5-.14-.74h6.11c-.44.73-.78,1.52-1,2.34h0l-2,7.72c-.06.2-.09.41-.11.62h0c0,.29.17.56.43.68h0c.29.07.59.1.89.08h4.17s1.06,0,1.33-.62h0c.1-.27.18-.54.24-.81h0l2.1-8.2c.09-.35.13-.71.13-1.07h0c-.01-.24-.05-.48-.13-.71ZM89.4,23.72h0s0,.57-.12,1.71h0c.29-.53.69-.99,1.17-1.35h0c.52-.26,1.11-.39,1.69-.36h2.8l-.94,3.28c-.49-.36-1.08-.54-1.69-.51h-1.69s-1.17,0-1.36.86h0l-1.17,4.68c-.07.37-.1.75-.09,1.13h0c0,.24.04.49.11.72h-5.84c.45-.73.79-1.51,1-2.34h0l1.55-5.91c.07-.36.11-.73.11-1.1h0c0-.25-.05-.49-.14-.72h4.68l-.07-.09ZM101.75,20.08h0l-1.07,4.15c.4-.36.94-.55,1.48-.51h2.9c.78,0,1.54.22,2.2.63h0c.56.48.9,1.17.94,1.9h0c-.02.44-.08.88-.19,1.31h0l-.93,3.61c-.38,1.47-1.67,2.52-3.18,2.61h-3.7c-.37,0-.73-.04-1.08-.14h0c-.33-.14-.57-.43-.66-.78h0l-.24.92h-5.33c.45-.73.79-1.51,1-2.34h0l2.47-9.55c.08-.35.12-.71.13-1.07h0c-.01-.25-.06-.5-.13-.74h5.39ZM99.82,31.83h1.06s.74,0,1-.25h0c.22-.33.37-.7.43-1.09h0l.92-3.51c.06-.21.11-.42.14-.64h0s0-.63-1-.63h-1.17s-.59,0-.79.2h0c-.19.22-.31.49-.35.78h0l-1,4.07c-.05.17-.09.35-.11.53h0s0,.57.93.57l-.06-.03ZM110.82,23.72h9.18c.64,0,1.26.19,1.79.55h0c.56.51.9,1.24.92,2h0c-.02.47-.09.93-.21,1.38h0l-1.2,4.35c-.08.36-.13.72-.13,1.09h0c.01.24.06.48.13.71h-4.81c-.07-.25-.11-.5-.11-.76h0v-.24c-.44.67-1.2,1.05-2,1h-2.9c-.73,0-1.45-.2-2.09-.57h0c-.6-.44-.97-1.13-1-1.88h0c0-.31.05-.63.14-.93h0l.24-1c.21-.73.64-1.38,1.23-1.87h0c.64-.37,1.37-.54,2.11-.51h4.68c.24,0,.48-.03.7-.11h0c.19-.19.29-.45.27-.71h0s0-.55-1.06-.55h-4.87c-.73,0-1.46.13-2.14.39h0l1.09-2.34h.04ZM117.15,29h-2.34c-.27,0-.55.05-.8.16h0c-.18.18-.3.42-.34.67h0l-.27,1c-.04.14-.06.29-.08.43h0s0,.59,1,.59h1.17c.25,0,.5-.04.74-.11h0s.23-.11.37-.63h0l.55-2.14v.03ZM130.28,23.75h0l-.25.92c.17-.3.4-.57.68-.78h0c.32-.11.66-.16,1-.14h3.29c.72.02,1.42.26,2,.69h0c.5.5.78,1.19.78,1.9h0c-.02.54-.09,1.08-.22,1.6h0l-1,4.06c-.07.36-.11.72-.12,1.09h0c0,.24.05.48.12.71h-5.85c.46-.72.79-1.51,1-2.34h0l1.18-4.46c.07-.26.12-.52.16-.79h0c-.01-.24-.19-.44-.43-.49h0c-.18-.02-.36-.02-.54,0h-1.17c-.29-.01-.58.06-.83.2h0c-.2.21-.34.47-.39.76h0l-1.32,5.32c-.08.36-.12.72-.12,1.09h0c0,.24.05.48.12.71h-5.79c.45-.72.79-1.51,1-2.34h0l1.55-5.91c.07-.36.11-.73.12-1.1h0c-.01-.24-.06-.48-.14-.71h5.17ZM151.7,22.39h0l-.84,3.26h4.68c.51,0,1,0,1.52-.09h0c.27-.04.54-.11.79-.21h0l-.74,2.83c-.55-.18-1.13-.28-1.71-.28h-5.11l-1.09,4.1c-.08.36-.12.72-.12,1.09h0c.01.24.05.49.12.72h-6.09c.45-.73.79-1.51,1-2.34h0l2.49-9.55c.07-.36.11-.72.12-1.08h0c0-.25-.05-.5-.12-.74h12.16l-.31,2.68c-.65-.34-1.39-.49-2.12-.42h-4.63v.03ZM165.35,20.11h0l-3.13,11.89c-.07.36-.11.72-.11,1.09h0c0,.24.04.48.11.71h-5.85c.45-.73.79-1.51,1-2.34h0l2.47-9.55c.07-.35.11-.71.11-1.07h0c0-.25-.04-.5-.11-.74h5.51ZM169.7,23.75h6.06c.61,0,1.21.12,1.77.35h0c.77.49,1.24,1.34,1.25,2.26h0c-.01.39-.07.79-.16,1.17h0l-1,3.7c-.2.76-.61,1.45-1.17,2h0c-.88.48-1.88.69-2.88.61h-7.32c-.42-.06-.82-.21-1.17-.46h0c-.6-.53-.94-1.29-.94-2.09h0c.01-.29.06-.57.14-.85h0l1.21-4.44c.22-.84.8-1.55,1.58-1.93h0c.83-.27,1.71-.39,2.58-.35l.05.03ZM170.32,26.58h0l-1,4.13c-.06.19-.1.38-.13.58h0s0,.57,1,.57h1.46c.27,0,.54-.03.8-.11h0c.21-.18.35-.44.4-.71h0l1-4c.07-.23.11-.46.12-.7h0s0-.69-1-.69h-1.25c-.31,0-.61.04-.9.14h0c-.25.18-.41.44-.47.74l-.03.05ZM184.6,23.75h6.12c.6,0,1.2.12,1.76.35h0c.78.49,1.25,1.34,1.25,2.26h0c0,.39-.06.79-.16,1.17h0l-1,3.7c-.2.76-.61,1.45-1.17,2h0c-.88.48-1.88.69-2.88.61h-7.37c-.42-.05-.83-.21-1.17-.46h0c-.6-.5-.96-1.22-1-2h0c0-.29.06-.57.15-.84h0l1.17-4.41c.23-.84.8-1.54,1.58-1.93h0c.84-.27,1.72-.39,2.6-.35l.12-.1ZM185.2,26.58h0l-1.13,4.13c-.06.19-.1.38-.13.58h0s0,.57,1,.57h1.5c.29,0,.58-.04.86-.14h0c.21-.19.35-.44.39-.72h0l1-3.9c.07-.23.11-.47.13-.71h0s0-.69-1-.69h-1.26c-.31,0-.62.05-.91.14h0c-.25.18-.41.44-.47.74h.02ZM200.45,23.75h0s0,.57-.12,1.71h0c.29-.53.69-.99,1.17-1.35h0c.52-.26,1.11-.39,1.69-.36h2.81l-.95,3.25c-.49-.36-1.08-.54-1.69-.51h-1.74s-1.17,0-1.36.86h0l-1.17,4.68c-.08.36-.12.72-.13,1.09h0c.01.24.06.49.13.72h-5.85c.46-.72.8-1.51,1-2.34h0l1.54-5.91c.09-.36.13-.73.13-1.1h0c0-.25-.06-.49-.15-.72h4.68v-.02ZM212.92,20.11h0l-.67,2.68h-4.95l.7-2.68h4.92ZM212,23.72h0l-2.19,8.28c-.08.36-.13.72-.13,1.09h0c0,.24.05.48.13.71h-5.81c.45-.72.79-1.51,1-2.34h0l1.53-5.91c.08-.36.13-.73.13-1.1h0c-.01-.24-.06-.48-.14-.71h5.48v-.02ZM219,23.72h0l-.25.92c.17-.3.4-.57.68-.78h0c.32-.11.66-.16,1-.14h3.32c.72.02,1.42.26,2,.69h0c.5.5.78,1.19.78,1.9h0c-.02.54-.09,1.08-.22,1.6h0l-1.03,4.09c-.07.36-.11.72-.12,1.09h0c0,.24.05.48.12.71h-5.79c.46-.72.79-1.51,1-2.34h0l1.18-4.46c.06-.26.12-.52.16-.79h0c-.01-.24-.19-.44-.43-.49h0c-.18-.02-.36-.02-.54,0h-1.17c-.29-.01-.58.06-.83.2h0c-.2.21-.34.47-.39.76h0l-1.39,5.32c-.08.36-.12.72-.12,1.09h0c.01.24.05.49.12.72h-5.85c.45-.73.79-1.51,1-2.34h0l1.55-5.91c.07-.36.11-.73.12-1.1h0c-.01-.25-.06-.49-.14-.72h5.24v-.02ZM237.4,23.72h5.33c-.46.72-.79,1.51-1,2.34h0l-2.12,8s-.37,1.43-.41,1.54h0c-.16.5-.42.96-.76,1.35h0s-.71.72-3.1.72h-9.34l.17-2.34c.76.31,1.59.44,2.41.38h4.31s1.27,0,1.5-.49h0c.08-.23.15-.46.2-.7h0l.35-1.31c-.55.47-1.28.7-2,.63h-2.14c-.63,0-1.26-.06-1.87-.2h0c-.58-.22-1.06-.63-1.37-1.17h0c-.19-.36-.3-.76-.31-1.17h0c.02-.34.07-.67.16-1h0l1-3.78c.19-.86.64-1.64,1.29-2.23h0c.75-.4,1.59-.58,2.44-.54h3.42c.34,0,.68.06,1,.19h0c.26.18.43.47.48.78h0l.27-1h.09ZM233.17,31.83h1.17s.7,0,1-.33h0c.13-.3.22-.62.26-.95h0l.81-3.18c.09-.33.15-.66.19-1h0s0-.69-1-.69h-1.09c-.61.07-1.1.56-1.17,1.17h0l-1,3.67c-.06.22-.1.43-.14.65h0s0,.66,1,.66h-.03ZM262.88,20.13h0l-.41,2.79c-.63-.4-1.36-.6-2.11-.58h-4.78s-.83,0-1.06.4h0c-.09.18-.15.38-.18.58h0c-.06.19-.1.39-.12.59h0s0,.49.82.49h4.15c.55-.01,1.09.13,1.56.41h0c.38.38.6.88.63,1.41h0c-.02.37-.08.73-.18,1.09h0l-.88,3.51c-.23.88-.68,1.69-1.32,2.34h0c-.48.3-1.01.5-1.57.58h-10.77l.39-2.78c.36.22.76.38,1.17.48h6.36c.19-.06.35-.2.43-.38h0c.16-.34.25-.7.27-1.07h0s0-.51-.78-.49h-3.86s-2.56,0-2.56-1.87h0c.03-.54.12-1.08.26-1.61h0l.85-3.15c.23-.89.74-1.68,1.45-2.25h0c.76-.42,1.63-.63,2.5-.6h9.64l.1.11ZM277.21,23.77h0l-2.79,10.82s-.26,1-.39,1.38h0c-.18.45-.46.85-.82,1.17h0c-.78.44-1.68.64-2.57.57h-9.88l.21-2.17c.57.15,1.17.23,1.76.23h5.37c.32,0,.64-.05.93-.17h0c.22-.22.37-.5.42-.8h0l.41-1.56c-.21.26-.49.46-.8.58h0c-.33.05-.67.07-1,.06h-2.5s-.31,0-1.09-.09h0c-.49-.07-.95-.28-1.34-.59h0c-.54-.51-.87-1.2-.92-1.94h0c.03-.51.12-1.01.27-1.49h0l1.06-4.14c.08-.36.12-.73.12-1.1h0c-.01-.25-.06-.49-.14-.72h5.41l-1.79,7c-.02.09-.04.18-.07.26h0c-.04.11-.07.22-.07.34h0s0,.53.95.53h1.26c.3,0,.6-.08.86-.23h0c.21-.25.35-.55.41-.87h0l1.36-5.33c.08-.36.13-.73.13-1.1h0c-.01-.24-.06-.48-.15-.71h5.4v.07ZM290.21,23.77h0l-.11,2.34c-.79-.28-1.62-.4-2.46-.37h-4.26s-.67,0-.67.52h0s0,.35.78.35h3.51c.59.01,1.16.2,1.64.54h0c.42.38.65.92.65,1.48h0c-.01.34-.07.67-.16,1h0l-.41,1.54c-.2.76-.6,1.46-1.17,2h0c-.87.5-1.86.73-2.86.65h-8.53l.24-2.26c.29.1.58.17.88.23h0c.62.06,1.24.08,1.87.08h4c.39.01.72-.3.74-.69h0s0-.32-.54-.32h-3c-.76.02-1.51-.11-2.21-.39h0c-.55-.43-.87-1.09-.89-1.79h0c0-.2.03-.4.07-.6h0l.53-2c.19-.74.63-1.39,1.24-1.85h0c.67-.31,1.4-.45,2.13-.41h8.92l.07-.05ZM301.91,23.77h0l-.52,1.95h-4l-1.32,5.09c-.01.1-.01.2,0,.3h0s0,.77,1.39.77h1.23c.58-.02,1.15-.12,1.7-.31h0l-.57,2.26h-5c-.9.02-1.79-.13-2.63-.43h0c-.69-.47-1.12-1.24-1.17-2.07h0c0-.28.04-.55.11-.82h0l1.23-4.79h-2.07l.51-1.95h2.05l.49-1.91,5-.32-.57,2.23h4.14ZM313.91,31.68h0l-.89,2.15h-8.77c-.76,0-1.51-.21-2.17-.6h0c-.61-.46-.98-1.17-1-1.94h0c0-.27.04-.54.11-.81h0l1.17-4.43c.4-1.42,1.72-2.39,3.19-2.34h6.3c.93-.02,1.85.19,2.67.63h0c.5.5.79,1.17.82,1.87h0c-.01.34-.05.67-.12,1h0l-.64,2.5h-8.28l-.24.93c-.05.18-.08.37-.09.56h0c0,.25.17.46.41.52h0c.3.07.6.1.91.09h4.84c.6,0,1.2-.07,1.79-.2v.07ZM306.81,27.84h3.32l.28-1.17c.05-.15.08-.3.09-.45h0s0-.51-.72-.51h-1.56c-.27,0-.54.06-.78.19h0c-.19.22-.31.48-.35.77h0l-.28,1.17ZM322.68,23.77h0l-.26,1c.18-.33.44-.62.76-.83h0c.35-.12.73-.16,1.1-.14h5c.34,0,.68.05,1,.18h0c.25.2.43.48.51.79h0c.13-.31.33-.58.59-.79h0c.31-.15.66-.21,1-.18h3.58c.73,0,1.44.27,2,.75h0c.49.53.76,1.22.77,1.94h0c-.03.4-.11.79-.22,1.17h0l-1.23,4.34c-.08.36-.12.72-.12,1.09h0c0,.24.05.48.12.71h-5.8c.46-.72.79-1.51,1-2.34h0l1.18-4.46c.06-.21.09-.42.11-.63h0s0-.66-1-.66h-1.17c-.29,0-.57.07-.81.22h0c-.2.23-.33.5-.39.79h0l-1.32,5.28c-.08.36-.13.72-.14,1.09h0c.01.24.06.48.14.71h-5.79c.46-.72.8-1.51,1-2.34h0l1.17-4.4c.06-.25.1-.51.14-.76h0s0-.61-.82-.61h-1.17c-.32-.01-.65.06-.94.2h0c-.23.25-.38.56-.43.89h0l-1.36,5.22c-.08.36-.12.72-.13,1.09h0c0,.24.05.48.13.71h-6c.46-.72.79-1.51,1-2.34h0l1.57-6c.07-.36.11-.73.11-1.1h0c0-.24-.05-.48-.14-.71h5.24l.02.12ZM352.63,23.77h0l-.11,2.34c-.79-.28-1.62-.4-2.45-.37h-4.36s-.68,0-.68.52h0s0,.35.79.35h3.51c.59.01,1.16.2,1.64.54h0c.42.38.65.92.65,1.48h0c-.01.34-.07.67-.16,1h0l-.41,1.54c-.2.76-.6,1.46-1.17,2h0c-.87.5-1.86.73-2.86.65h-8.53l.24-2.26c.3.07.6.11.9.13h0c.62.06,1.25.09,1.87.09h4c.39,0,.72-.3.74-.69h0s0-.33-.54-.33h-3c-.75.02-1.51-.11-2.21-.38h0c-.55-.43-.88-1.09-.89-1.79h0c0-.2.02-.4.07-.6h0l.52-2c.19-.74.63-1.39,1.24-1.84h0c.67-.31,1.4-.45,2.13-.41h8.92l.15.03Z"/>
    </g>
  </g>
</svg>