<?xml version="1.0" encoding="UTF-8"?>
<svg xmlns="http://www.w3.org/2000/svg" id="Layer_2" data-name="Layer 2" viewBox="0 0 1545.9 541.1">
  <defs>
    <style>
      .cls-1, .cls-2 {
        fill-rule: evenodd;
      }

      .cls-2 {
        fill: #ff6900;
      }
    </style>
  </defs>
  <g id="Layer_1-2" data-name="Layer 1">
    <g>
      <path class="cls-1" d="M182.13,464.61c-13.37-7.76-28.42-12.49-43.99-13.83-3.55-.44-7.1-.77-10.67-1l24.42-54.31,30.24,69.14ZM275.7,537.48v-8.35c-3.47,0-6.89-.78-9.98-2.28-2.93-1.6-5.36-3.9-7.07-6.69-2.18-3.57-4.01-7.32-5.47-11.21l-1.65-4.11-50.58-115.19c-.96-1.89-1.55-3.93-1.74-6.02-.06-.98.06-1.96.35-2.91.44-1.15,1.27-2.12,2.34-2.78,1.29-.85,2.71-1.5,4.21-1.95l1.43-.42v-8.18h-88.71v8.18c1.84.56,3.6,1.32,5.25,2.28,1.08.63,1.95,1.54,2.52,2.62.51,1.17.69,2.44.52,3.7-.27,1.52-.7,3.01-1.3,4.44l-.39,1.04-52.62,108.88c-2.7,5.87-5.81,11.56-9.33,17.02-2.83,4.39-6.77,8.03-11.45,10.59-3.41,1.71-7.11,2.8-10.93,3.24v8.1h72.19v-8.35c-2.87.1-5.75-.25-8.5-1.04-1.92-.51-3.64-1.55-4.95-2.99-1.11-1.39-1.83-3.04-2.08-4.78-.35-2.07-.29-4.18.17-6.23,1.01-4.55,2.58-8.97,4.69-13.16l15.44-32.76c18.56.99,36.7,5.66,53.27,13.7,8.23,4.01,15.33,9.87,20.69,17.07,3.76,5.28,5.77,11.51,5.77,17.9,0,2.95-1.12,5.81-3.17,8.01-1.71,1.65-3.81,2.87-6.12,3.57-1.18.37-2.39.69-3.6.96v8.1h90.8Z"></path>
      <path class="cls-1" d="M468.09,478.89c.31-13.55-6.38-26.38-17.87-34.3-9.95-6.87-21.14-11.91-33.01-14.87-2.34-.68-4.7-1.3-7.07-1.87l-39.13-9.18c-6.6-1.48-13.11-3.28-19.52-5.4-2.72-.91-5.29-2.18-7.64-3.78-5.3-3.8-6.38-10.99-2.42-16.07.12-.16.25-.31.38-.46,2.45-2.85,5.64-5.04,9.24-6.35,7.68-2.81,15.93-3.9,24.12-3.2,18.92.76,36.68,8.91,49.15,22.55,5.14,5.36,9.76,11.15,13.8,17.32l10.67-.75-13.97-58.67c-3.78,2.23-7.87,3.92-12.15,5.02-1.88.43-3.8.64-5.73.62-1.62-.14-3.23-.39-4.82-.75-22.38-4.76-45.45-5.79-68.2-3.03-11.89,1.48-23.24,5.67-33.1,12.21-15.8,10.94-21.82,30.74-14.62,48.09,2.79,5.78,7.34,10.61,13.06,13.87,6.96,3.95,14.43,7.02,22.21,9.14,2.57.81,5.16,1.58,7.77,2.28l45.51,12.04c6.57,1.63,13.02,3.68,19.3,6.15,3.33,1.33,6.38,3.21,9.02,5.56,3.3,3.09,5.27,7.26,5.51,11.67.77,9.16-3.49,18.04-11.24,23.46-7.09,4.94-15.35,8.12-24.03,9.26-27.04,5.32-55-3.47-73.49-23.09-8.04-8.96-14.04-19.42-17.61-30.73l-10.93.5,18,74.95c1.68-2.51,3.74-4.76,6.12-6.69,2.13-1.72,4.81-2.68,7.59-2.74.92.03,1.83.11,2.73.25l13.1,2.87c27.76,6.27,56.67,6.17,84.38-.29,14.38-3.49,27.62-10.35,38.52-19.97,10.31-9.24,16.22-22.11,16.35-35.63Z"></path>
      <path class="cls-1" d="M615.37,403.65c-.09,5.03-2.15,9.85-5.77,13.5-3.92,3.86-8.48,7.07-13.49,9.51-11.16,5.26-22.79,9.57-34.75,12.87l-11.15,3.16v-42.31c-.06-2.16.18-4.33.69-6.44.56-2.22,1.97-4.16,3.95-5.44,1.8-1.09,3.8-1.84,5.9-2.2,5.12-.91,10.32-1.33,15.53-1.25,7.42-.23,14.85.36,22.12,1.79,3.54.71,6.92,2.02,9.98,3.86,4.12,2.51,6.69,6.79,6.9,11.46l.09,1.49ZM666.42,397.01c.16-4.84-1.11-9.63-3.64-13.83-2.73-4.05-6.63-7.24-11.24-9.18-7.19-3.08-14.88-4.96-22.73-5.56-7.54-.73-15.11-1.08-22.69-1.04h-122.51v8.18c2.97.33,5.87,1.1,8.59,2.28,3.49,1.54,6.09,4.47,7.11,8.01.83,2.9,1.27,5.88,1.3,8.89.09,1.95.12,3.9.09,5.85v103.98c.1,3.77-.09,7.55-.56,11.29-.28,2.34-1.08,4.59-2.34,6.6-1.44,2.16-3.55,3.84-6.03,4.82-2.6,1.06-5.35,1.76-8.16,2.08v8.1h89.24v-8.35c-4.01-.11-7.99-.73-11.84-1.83-2.52-.7-4.8-2.03-6.59-3.86-1.7-1.86-2.84-4.13-3.3-6.56-.63-3.29-.92-6.62-.87-9.97l-.04-5.61v-39.82c26.22-4.84,51.83-12.29,76.44-22.22,9.77-4.04,18.8-9.53,26.77-16.28,5.99-5.02,10.24-11.67,12.19-19.06.56-2.27.84-4.6.82-6.93Z"></path>
      <path class="cls-1" d="M892.97,537.48v-8.1c-3.27-.37-6.47-1.24-9.46-2.57-3.3-1.55-5.74-4.38-6.72-7.77-.82-2.86-1.24-5.8-1.26-8.76-.09-1.9-.12-3.79-.09-5.69v-103.98c-.07-3.79.15-7.58.65-11.34.29-2.36,1.11-4.64,2.39-6.69,1.5-2.21,3.66-3.93,6.2-4.94,2.65-1.06,5.44-1.76,8.29-2.08v-8.18h-84.12v8.18c3.32.37,6.55,1.24,9.59,2.57,3.37,1.57,5.86,4.46,6.81,7.93.82,2.94,1.24,5.97,1.26,9.01l.09,18.52h-78.78c-.2-7.16-.12-14.32.26-21.47.12-2.81.77-5.58,1.91-8.18,1.34-2.86,3.78-5.12,6.81-6.31,2.57-1.06,5.29-1.76,8.07-2.08v-8.18h-83.68v8.18c2.97.33,5.87,1.1,8.59,2.28,3.5,1.53,6.12,4.47,7.16,8.01.82,2.9,1.24,5.88,1.26,8.89.09,1.95.12,3.9.09,5.85v103.98c.1,3.77-.09,7.55-.56,11.29-.26,2.33-1.05,4.58-2.3,6.6-1.44,2.16-3.55,3.84-6.03,4.82-2.62,1.06-5.38,1.76-8.2,2.08v8.1h83.68v-8.1c-3.08-.39-6.07-1.21-8.89-2.45-3.29-1.52-5.74-4.32-6.72-7.68-.85-2.88-1.3-5.85-1.34-8.84-.09-1.94-.12-3.88-.09-5.81v-73.46h78.78v73.46c.13,3.9-.09,7.8-.65,11.67-.33,2.39-1.24,4.68-2.65,6.69-1.53,2.01-3.64,3.54-6.07,4.4-2.7,1-5.51,1.68-8.37,2.03v8.1h84.12Z"></path>
      <path class="cls-1" d="M1047.76,464.61c-13.37-7.76-28.42-12.49-43.99-13.83-3.55-.44-7.1-.77-10.67-1l24.42-54.31,30.24,69.14ZM1141.33,537.48v-8.35c-3.47,0-6.89-.78-9.98-2.28-2.93-1.6-5.36-3.9-7.07-6.69-2.18-3.57-4.01-7.32-5.47-11.21l-1.65-4.11-50.58-115.19c-.96-1.89-1.55-3.93-1.74-6.02-.06-.98.06-1.96.35-2.91.44-1.15,1.27-2.12,2.34-2.78,1.29-.85,2.71-1.5,4.21-1.95l1.43-.42v-8.18h-88.71v8.18c1.84.56,3.6,1.32,5.25,2.28,1.08.63,1.95,1.54,2.52,2.62.51,1.17.69,2.44.52,3.7-.27,1.52-.7,3.01-1.3,4.44l-.39,1.04-52.62,108.88c-2.7,5.87-5.81,11.56-9.33,17.02-2.83,4.39-6.77,8.03-11.45,10.59-3.41,1.71-7.11,2.8-10.93,3.24v8.1h72.19v-8.35c-2.87.1-5.75-.25-8.5-1.04-1.92-.51-3.64-1.55-4.95-2.99-1.11-1.39-1.83-3.04-2.08-4.78-.35-2.07-.29-4.18.17-6.23,1.01-4.55,2.58-8.97,4.69-13.16l15.44-32.76c18.56.99,36.7,5.66,53.27,13.7,8.23,4.01,15.33,9.87,20.69,17.07,3.76,5.28,5.77,11.51,5.77,17.9,0,2.95-1.12,5.81-3.17,8.01-1.71,1.65-3.81,2.87-6.12,3.57-1.18.37-2.39.69-3.6.96v8.1h90.8Z"></path>
      <path class="cls-1" d="M1338.62,468.68h-10.93c-7.83,16.31-20.21,30.24-35.79,40.24-14.95,8.7-32.5,12.4-49.89,10.51-3.01-.34-5.93-1.22-8.59-2.62-3.09-1.77-5.41-4.56-6.51-7.85-1.02-3.21-1.59-6.53-1.69-9.88-.17-3.42-.23-6.84-.17-10.26v-88.2c-.09-3.96.17-7.92.78-11.83.42-2.59,1.48-5.05,3.08-7.18,1.75-2.08,4.06-3.66,6.68-4.57,2.18-.78,4.43-1.35,6.72-1.7v-7.93h-81.64v7.93c2.88.39,5.68,1.22,8.29,2.45,3.29,1.55,5.72,4.38,6.68,7.77.82,2.81,1.24,5.72,1.26,8.64.09,2.14.12,4.29.09,6.44v103.48c.06,3.72-.12,7.43-.52,11.13-.26,2.28-.98,4.5-2.13,6.52-1.34,2.17-3.36,3.89-5.77,4.9-2.5,1.11-5.16,1.87-7.9,2.24v7.85h133.96c3.04-.1,6.08.14,9.07.71,2.64.6,5.17,1.58,7.51,2.91l27.42-71.67Z"></path>
      <path class="cls-1" d="M1513.21,422.54l-18.78-57.93c-3.28,1.64-6.81,2.77-10.45,3.36-1.68.19-3.38.28-5.08.25h-137.21c-3.02.08-6.03-.28-8.94-1.08-2.13-.64-4.18-1.49-6.12-2.53l-19.13,57.93,11.02,1.54c3.46-10.31,10.21-19.31,19.3-25.75,8.88-5.74,19.04-9.39,29.67-10.67,6.01-.87,12.06-1.41,18.13-1.62v113.49c.13,4.66-.09,9.32-.65,13.95-.35,2.86-1.28,5.62-2.73,8.14-1.7,2.62-4.27,4.62-7.29,5.69-3.17,1.17-6.5,1.87-9.89,2.08v8.1h90.67v-8.1c-3.58-.22-7.09-.99-10.41-2.28-4.11-1.61-7.25-4.9-8.55-8.97-1-3.05-1.56-6.23-1.65-9.43-.19-3.06-.26-6.12-.22-9.18v-113.49c12.16.1,24.21,2.09,35.7,5.9,14.19,4.95,25.45,15.54,30.89,29.03l1.3,3.11,10.41-1.54Z"></path>
      <path class="cls-2" d="M1545.88,187.44c.42-21.79-8.64-42.42-24.21-55.16-13.48-11.04-28.64-19.15-44.72-23.91-3.17-1.09-6.37-2.09-9.58-3l-53-14.76c-8.94-2.38-17.77-5.28-26.44-8.68-3.68-1.46-7.16-3.51-10.34-6.08-7.18-6.11-8.65-17.68-3.27-25.84.16-.25.34-.5.51-.74,3.33-4.58,7.64-8.1,12.52-10.22,10.41-4.51,21.58-6.27,32.67-5.14,25.63,1.22,49.69,14.33,66.58,36.26,6.96,8.61,13.22,17.94,18.69,27.85l14.46-1.2-18.92-94.36c-5.11,3.58-10.66,6.3-16.45,8.08-2.54.69-5.15,1.02-7.76,1-2.2-.22-4.38-.63-6.52-1.2-30.32-7.66-61.57-9.31-92.38-4.87-16.11,2.38-31.49,9.11-44.84,19.63-21.4,17.59-29.55,49.44-19.8,77.33,3.78,9.29,9.95,17.07,17.69,22.3,9.43,6.35,19.54,11.29,30.09,14.69,3.48,1.31,6.99,2.53,10.52,3.67l61.64,19.37c8.9,2.61,17.64,5.92,26.15,9.88,4.51,2.14,8.65,5.17,12.22,8.95,4.47,4.97,7.13,11.67,7.46,18.76,1.04,14.73-4.72,29.01-15.22,37.73-9.6,7.94-20.79,13.06-32.56,14.89-36.63,8.55-74.5-5.58-99.55-37.13-10.89-14.41-19.01-31.24-23.86-49.41l-14.81.8,24.39,120.53c2.27-4.03,5.07-7.66,8.29-10.75,2.89-2.76,6.51-4.31,10.28-4.41,1.24.04,2.48.18,3.7.4l17.75,4.61c37.6,10.09,76.76,9.93,114.3-.47,19.47-5.61,37.41-16.65,52.18-32.12,13.96-14.86,21.97-35.56,22.15-57.29ZM1250.39,171.02h-14.81c-10.6,26.24-27.38,48.63-48.48,64.71-20.25,14-44.03,19.94-67.58,16.89-4.08-.54-8.03-1.97-11.64-4.21-4.19-2.85-7.32-7.34-8.81-12.62-1.38-5.16-2.15-10.5-2.29-15.89-.23-5.49-.31-10.99-.23-16.49V61.57c-.12-6.37.24-12.73,1.06-19.03.57-4.17,2-8.13,4.17-11.55,2.37-3.34,5.5-5.89,9.05-7.35,2.95-1.25,6-2.17,9.11-2.74v-12.75h-110.59v12.75c3.9.62,7.69,1.95,11.22,3.94,4.45,2.5,7.74,7.04,9.05,12.49,1.11,4.52,1.68,9.19,1.7,13.89.12,3.45.16,6.9.12,10.35v166.41c.08,5.98-.16,11.95-.71,17.9-.35,3.67-1.33,7.23-2.88,10.48-1.81,3.49-4.55,6.25-7.82,7.88-3.39,1.79-6.99,3.01-10.69,3.61v12.62h181.46c4.12-.16,8.24.23,12.28,1.14,3.58.97,7,2.55,10.17,4.67l37.14-115.26ZM970.51,171.02h-14.81c-10.6,26.24-27.38,48.63-48.48,64.71-20.25,14-44.03,19.94-67.58,16.89-4.08-.54-8.03-1.97-11.64-4.21-4.19-2.85-7.32-7.34-8.81-12.62-1.38-5.16-2.15-10.5-2.29-15.89-.24-5.49-.31-10.99-.24-16.49V61.57c-.12-6.37.24-12.73,1.06-19.03.57-4.17,2-8.13,4.17-11.55,2.37-3.34,5.5-5.89,9.05-7.35,2.95-1.25,6-2.17,9.11-2.74v-12.75h-110.59v12.75c3.9.62,7.69,1.95,11.22,3.94,4.45,2.5,7.74,7.04,9.05,12.49,1.11,4.52,1.68,9.19,1.7,13.89.12,3.45.16,6.9.12,10.35v166.41c.08,5.98-.16,11.95-.71,17.9-.35,3.67-1.33,7.23-2.88,10.48-1.81,3.49-4.55,6.25-7.82,7.88-3.39,1.79-6.99,3.01-10.69,3.61v12.62h181.46c4.12-.16,8.24.23,12.28,1.14,3.58.97,7,2.55,10.17,4.67l37.14-115.26ZM689.71,171.82h-14.81c-13.51,28.48-34.25,51.68-59.53,66.58-23.94,12.82-50.71,17.19-76.86,12.55-3.9-.74-7.67-2.18-11.17-4.27-4.28-2.72-7.43-7.26-8.76-12.62-1.17-4.76-1.72-9.68-1.65-14.62v-108.25c11.74-.31,23.48-.09,35.2.67,9.51.61,18.79,3.55,27.21,8.61,7.81,5.25,14.21,12.83,18.51,21.9,2.45,4.87,4.63,9.91,6.52,15.09h13.75l-16.87-98.03h-13.1c-.69,4.74-2.23,9.26-4.52,13.29-2.53,4.05-6.16,7.03-10.34,8.48-5.21,1.88-10.64,2.89-16.1,3-13.41.45-26.84.53-40.25.27-.18-7.72-.12-15.45.18-23.17.2-3.79.96-7.51,2.23-11.02,1.51-3.79,4.21-6.79,7.58-8.41,3.21-1.58,6.62-2.57,10.11-2.94,30.15-3.4,60.41,5.06,85.74,23.97,11.46,9.06,20.85,21.1,27.38,35.12h14.81L637.47,0c-4.29,5.38-10.12,8.85-16.45,9.82-3.59.67-7.23.98-10.87.93h-180.76v12.55c4.16.67,8.2,2.14,11.93,4.34,4.35,2.64,7.54,7.21,8.81,12.62,1.07,4.55,1.6,9.24,1.59,13.96.12,3,.16,6.01.12,9.01v164.74c.12,6.07-.16,12.14-.82,18.16-.38,3.84-1.55,7.52-3.41,10.75-2.01,3.19-4.75,5.69-7.93,7.21-3.28,1.62-6.74,2.74-10.28,3.34v12.62h190.1c3.8-.16,7.6.14,11.34.87,5.22,1.31,10.14,3.83,14.46,7.41l1.76,1.47,42.66-117.99ZM378.44,21.3v-13.16h-94.61v13.16c4.88.34,9.69,1.49,14.28,3.41,3.25,1.31,6.08,3.71,8.11,6.88,1.68,2.72,2.68,5.9,2.88,9.22.29,4.06-.04,8.16-1,12.09l-2,9.08-31.67,156.26-36.08-154.99c-1.41-6.35-2.66-12.74-3.76-19.16-.47-2.87-.47-5.81,0-8.68.71-3.51,2.59-6.57,5.23-8.55,2.65-2.03,5.6-3.52,8.7-4.41,1.29-.46,2.61-.84,3.94-1.14v-13.16h-114v13.16c3.98.68,7.9,1.8,11.69,3.34,2.04.85,3.94,2.12,5.58,3.74,1.79,2.05,2.96,4.69,3.35,7.55.53,3.18.51,6.45-.06,9.62-.85,5.51-1.84,10.99-3,16.43l-30.67,151.18-30.32-150.38-3.17-14.49c-.88-3.74-1.06-7.66-.53-11.49.59-4.33,2.85-8.12,6.17-10.35,2.86-1.91,5.95-3.35,9.17-4.27l3.17-.87v-13.16H0v13.16c4.92.54,9.6,2.7,13.46,6.21,3.51,3.52,6.22,7.94,7.93,12.89,2.17,6.04,3.9,12.27,5.17,18.63l39.9,175.56c1.67,6.34,2.81,12.85,3.41,19.43.2,2.14.08,4.31-.35,6.41-.52,2.95-2.31,5.41-4.76,6.54-2.07.99-4.28,1.55-6.52,1.67v13.02h99.84v-13.02c-1.67-.14-3.31-.54-4.88-1.2-.94-.42-1.79-1.08-2.47-1.94-.58-.93-.97-2.01-1.12-3.14-.18-1.74-.12-3.49.18-5.21.95-5.82,2.2-11.58,3.76-17.23l30.67-138.23,30.32,133.29c1.42,6.13,2.62,12.32,3.58,18.56.33,2.43.19,4.92-.41,7.28-.64,2.38-2.1,4.36-4.05,5.48-1.97,1.13-4.1,1.86-6.29,2.14l-1.41.2v13.02h107.77v-13.02c-2.43-.22-4.78-1.06-6.88-2.47-2.58-1.73-4.23-4.81-4.41-8.21-.08-1.3,0-2.6.24-3.87.89-4.76,1.92-9.48,3.11-14.16l40.66-175.09c1.38-6.53,2.99-12.99,4.82-19.37,1.39-4.99,3.67-9.61,6.7-13.56,3.21-3.71,7.16-6.49,11.52-8.08,2.92-1.1,5.9-1.95,8.93-2.54Z"></path>
    </g>
  </g>
</svg>
